<?xml version="1.0" standalone="no"?>
<!DOCTYPE svg PUBLIC "-//W3C//DTD SVG 1.1//EN" "http://www.w3.org/Graphics/SVG/1.1/DTD/svg11.dtd" >
<svg xmlns="http://www.w3.org/2000/svg">
<metadata>
Created by FontForge 20120731 at Thu Oct 20 15:07:55 2016
 By admin
</metadata>
<defs>
<font id="iconfont" horiz-adv-x="1024" >
  <font-face 
    font-family="iconfont"
    font-weight="500"
    font-stretch="normal"
    units-per-em="1024"
    panose-1="2 0 6 3 0 0 0 0 0 0"
    ascent="896"
    descent="-128"
    x-height="792"
    bbox="-0.25 -212 1024.33 896.286"
    underline-thickness="50"
    underline-position="-100"
    unicode-range="U+0078-E673"
  />
<missing-glyph horiz-adv-x="374" 
d="M34 0v682h272v-682h-272zM68 34h204v614h-204v-614z" />
    <glyph glyph-name=".notdef" horiz-adv-x="374" 
d="M34 0v682h272v-682h-272zM68 34h204v614h-204v-614z" />
    <glyph glyph-name=".null" horiz-adv-x="0" 
 />
    <glyph glyph-name="nonmarkingreturn" horiz-adv-x="341" 
 />
    <glyph glyph-name="x" unicode="x" horiz-adv-x="1001" 
d="M281 543q-27 -1 -53 -1h-83q-18 0 -36.5 -6t-32.5 -18.5t-23 -32t-9 -45.5v-76h912v41q0 16 -0.5 30t-0.5 18q0 13 -5 29t-17 29.5t-31.5 22.5t-49.5 9h-133v-97h-438v97zM955 310v-52q0 -23 0.5 -52t0.5 -58t-10.5 -47.5t-26 -30t-33 -16t-31.5 -4.5q-14 -1 -29.5 -0.5
t-29.5 0.5h-32l-45 128h-439l-44 -128h-29h-34q-20 0 -45 1q-25 0 -41 9.5t-25.5 23t-13.5 29.5t-4 30v167h911zM163 247q-12 0 -21 -8.5t-9 -21.5t9 -21.5t21 -8.5q13 0 22 8.5t9 21.5t-9 21.5t-22 8.5zM316 123q-8 -26 -14 -48q-5 -19 -10.5 -37t-7.5 -25t-3 -15t1 -14.5
t9.5 -10.5t21.5 -4h37h67h81h80h64h36q23 0 34 12t2 38q-5 13 -9.5 30.5t-9.5 34.5q-5 19 -11 39h-368zM336 498v228q0 11 2.5 23t10 21.5t20.5 15.5t34 6h188q31 0 51.5 -14.5t20.5 -52.5v-227h-327z" />
    <glyph glyph-name="uniE600" unicode="&#xe600;" 
d="M478 168q19 -20 45 -20t44 21l270 309q6 7 5.5 15.5t-7 14.5t-15.5 5.5t-15 -7.5l-270 -309q-13 -14 -25 -1l-281 310q-6 7 -14.5 7.5t-15.5 -5.5t-7 -15t6 -15z" />
    <glyph glyph-name="uniE601" unicode="&#xe601;" 
d="M528 733h-476q-21 0 -35.5 -14.5t-14.5 -35.5v-549h84q0 56 39 95t94.5 39t95 -39t39.5 -95h224v503v46q0 21 -15 35.5t-35 14.5zM219.5 242q-44.5 0 -76 -31.5t-31.5 -76t31.5 -76.5t76 -32t76 32t31.5 76.5t-31.5 76t-76 31.5zM1022 369v56l-90 113l-78 99h-243v-503
h62q0 56 39.5 95t95 39t95 -39t39.5 -95h53q11 0 18 7t8 14l1 7v207zM1001 375h-205q-15 0 -25.5 10.5t-10.5 25.5v76q0 15 10.5 25.5t25.5 10.5h126l79 -99v-49zM807.5 242q-44.5 0 -76 -31.5t-31.5 -76t31.5 -76.5t76 -32t76 32t31.5 76.5t-31.5 76t-76 31.5z" />
    <glyph glyph-name="uniE602" unicode="&#xe602;" 
d="M279 564l15 4l415 138l-96 132l-382 -274h48zM466 564h381l-16 49l-29 87l-21 -7l-389 -129h74zM919 564q7 0 12.5 -5.5t5.5 -12.5v-140l50 25l33 17v146q0 22 -15.5 37.5t-37.5 15.5h-110l28 -83h34zM937 -10h30q22 0 37.5 15.5t15.5 37.5v120l-83 -42v-131zM808 341
q-41 0 -71 -29.5t-30 -71.5t30 -72t71 -30h62l150 64l1 205l-156 -66h-57zM808 210q-12 0 -20.5 9t-8.5 21t8.5 21t21 9t21 -9t8.5 -21t-8.5 -21t-21.5 -9zM672 240q0 55 49.5 96t108.5 41h48l23 11v88q0 22 -15.5 37.5t-37.5 15.5h-751q-12 4 -12 17q0 7 5 12.5t13 5.5h68
l116 83h-185q-41 0 -71 -29.5t-30 -71.5v-514q0 -42 30 -72t71 -30h558q5 0 14 1h174q22 0 37.5 16t15.5 38v118h-71q-59 0 -108.5 41t-49.5 96z" />
    <glyph glyph-name="uniE603" unicode="&#xe603;" 
d="M816 270q75 0 128 -53t53 -128t-53 -128t-128 -53t-128 53t-53 128t53 128t128 53zM805 240q-14 0 -23.5 -10t-9.5 -24v-130q0 -14 9.5 -23.5t23.5 -9.5h4q3 -1 7 -1h89q13 0 23 9.5t10 23.5t-10 23.5t-23 9.5h-67v98q0 14 -9.5 24t-23.5 10v0zM434 182l-321 227v-146
l321 -228v147zM513 236l205 147l-426 303l-205 -148zM493 -69l-421 299v271l421 -299v-271zM309 857l194 -4l404 -286l-194 4zM990 540q0 7 -5 13q-2 6 -6 9l-459 325q-5 4 -11 4l-260 5q-14 0 -18.5 -13t7.5 -21l119 -84l-57 -42q-3 0 -6 -2l-250 -181q-8 -5 -8 -15l-1 -1
v-317l8 -15l458 -325h1q2 -2 3 -2q4 -2 8 -2q6 0 11 4l113 79q-11 15 -20 33l-85 -61v271l421 299v-239q10 -8 19 -17q10 -10 19 -21v313q0 1 -0.5 1.5t-0.5 1.5z" />
    <glyph glyph-name="uniE604" unicode="&#xe604;" horiz-adv-x="1025" 
d="M984 584q-39 92 -109.5 162.5t-162.5 109.5q-95 40 -199 40t-199 -40q-92 -39 -162.5 -109.5t-109.5 -162.5q-40 -95 -40 -199t40 -199q39 -92 109.5 -162.5t162.5 -109.5q95 -40 199 -40t199 40q92 39 162.5 109.5t109.5 162.5q40 95 40 199t-40 199zM513 -8
q-107 0 -197.5 52.5t-143 143t-52.5 197.5t52.5 197.5t143 143t197.5 52.5t197.5 -52.5t143 -143t52.5 -197.5t-52.5 -197.5t-143 -143t-197.5 -52.5zM513 701q-24 0 -41.5 -17t-17.5 -42v-340q0 -24 17.5 -41.5t41.5 -17.5t41.5 17.5t17.5 41.5v340q0 24 -17.5 41.5
t-41.5 17.5zM513 190q-24 0 -41.5 -17t-17.5 -42v-3q0 -25 17.5 -42t41.5 -17t41.5 17t17.5 42v3q0 25 -17.5 42t-41.5 17z" />
    <glyph glyph-name="uniE605" unicode="&#xe605;" 
d="M842 569q-15 0 -26.5 -10.5t-11.5 -25.5v-546q0 -15 -11 -25.5t-26 -10.5h-510q-16 0 -26.5 10.5t-10.5 25.5v547q0 16 -10 26.5t-25 10.5t-25 -10.5t-10 -26.5v-547q0 -46 31 -79.5t76 -33.5h510q45 0 79 34t34 79v546q0 15 -11.5 25.5t-26.5 10.5zM436 133v401
q0 15 -10 25.5t-25 10.5t-25 -10.5t-10 -25.5v-401q0 -16 10 -26.5t25 -10.5t25 10.5t10 26.5zM657 133v401q0 15 -11 25.5t-26.5 10.5t-26.5 -10.5t-11 -25.5v-401q0 -15 11 -26t26.5 -11t26.5 11t11 26zM986 715h-182v74q0 45 -32 75.5t-77 30.5h-366q-45 0 -77 -30.5
t-32 -75.5v-74h-182q-16 0 -26.5 -10t-10.5 -25t10.5 -25t26.5 -10h948q15 0 25.5 10t10.5 25t-10.5 25t-25.5 10zM728 715h-438v74q0 15 12 25.5t27 10.5h366q15 0 24 -10t9 -26v-74z" />
    <glyph glyph-name="uniE606" unicode="&#xe606;" 
d="M512 896q-111 0 -205.5 -56t-149.5 -152.5t-55 -210.5q0 -47 23.5 -106.5t57.5 -114t81 -115t86 -103.5t81.5 -86.5t57.5 -57.5t23 -22q9 8 23.5 22t57 57t81.5 86.5t86 104t81 115t57.5 114t23.5 106.5q0 114 -55 210.5t-149.5 152.5t-205.5 56zM512 266
q-91 0 -155.5 64.5t-64.5 156t64.5 156t155.5 64.5t155.5 -64.5t64.5 -156t-64.5 -156t-155.5 -64.5z" />
    <glyph glyph-name="uniE607" unicode="&#xe607;" 
d="M983 568q-38 88 -106.5 156.5t-156.5 106.5q51 41 116 41q78 0 133 -55.5t55 -132.5q0 -65 -41 -116zM976 360q0 -91 -33.5 -173t-93.5 -145l65 -65q14 -14 14 -33.5t-14 -33.5t-33.5 -14t-33.5 14l-70 69q-120 -83 -265 -83t-265 83l-69 -69q-14 -14 -34 -14t-34 14
t-14 34t14 34l64 64q-59 64 -92.5 145.5t-33.5 172.5q0 94 36.5 180t99 148t148 99t180 37t180.5 -37t148 -99t99 -148t37 -180zM512 728q-100 0 -185 -49.5t-134 -134t-49 -184.5t49 -185t134 -134t185 -49t184.5 49t134 134t49.5 185t-49.5 184.5t-134 134t-184.5 49.5z
M704 312h-192q-20 0 -34 14t-14 34v256q0 20 14 34t34 14t34 -14t14 -34v-208h144q20 0 34 -14t14 -34t-14 -34t-34 -14zM41 561q-41 52 -41 119q0 79 56 135.5t136 56.5q66 0 119 -42q-91 -38 -161 -108t-109 -161z" />
    <glyph glyph-name="uniE608" unicode="&#xe608;" 
d="M1022 683v-574q0 -8 -1 -17h-1v-1q-6 -29 -29 -48t-53 -19h-837q-47 0 -77 35q-1 1 -2 1q-1 3 -3 5q-19 25 -19 57v545q0 25 14.5 44.5t37.5 26.5h1q17 6 37 6h882q3 -2 4 -2q38 -6 45 -44q1 -9 1 -15zM511 313q82 68 233.5 195.5t217.5 183.5q-50 3 -470 1.5t-427 -4.5
q165 -139 446 -376zM645 358q-5 -4 -48.5 -40.5t-65.5 -55.5q-20 -17 -39 0q-10 8 -27 22.5t-21 17.5q-42 37 -64 54q-100 -92 -299 -277l1 -1v-1h872q-39 35 -98.5 89.5t-112.5 102t-98 89.5zM340 390q-180 152 -288 244v-512q136 126 288 268zM684 391q35 -30 133.5 -120
t153.5 -140v502q-33 -28 -90.5 -76.5t-106 -88.5t-90.5 -77z" />
    <glyph glyph-name="uniE609" unicode="&#xe609;" 
d="M512.5 893q-103.5 0 -198 -40.5t-162.5 -108.5t-108.5 -162.5t-40.5 -198t40.5 -198t108.5 -162.5t162.5 -108.5t198 -40.5t198 40.5t162.5 108.5t108.5 162.5t40.5 198t-40 198t-108.5 162.5t-163 108.5t-198 40.5zM511 -26q-111 0 -205 55t-149 149t-55 205.5t55 206
t149 149.5t205 55t205 -55t148.5 -149.5t54.5 -206t-54.5 -205.5t-148.5 -149t-205 -55zM804 533l-19 20q-12 13 -29 13t-29 -13l-275 -289l-133 140q-12 13 -29 13t-29 -13l-19 -20q-12 -13 -12 -30.5t12 -30.5l174 -183q15 -16 36 -11q22 -5 36 11l316 332q12 13 12 30.5
t-12 30.5z" />
    <glyph glyph-name="uniE60A" unicode="&#xe60a;" 
d="M724 896h-375q-35 0 -60 -25t-25 -60v-854q0 -35 25 -60t60 -25h375q35 0 60.5 25t25.5 60v854q0 35 -25.5 60t-60.5 25zM485 828h103q7 0 12 -5t5 -12t-5 -12t-12 -5h-103q-7 0 -12 5t-5 12t5 12t12 5zM536.5 -94q-21.5 0 -36.5 15t-15 36.5t15 36.5t36.5 15t36.5 -15
t15 -36.5t-15 -36.5t-36.5 -15zM776 43h-478v682h478v-682z" />
    <glyph glyph-name="uniE60B" unicode="&#xe60b;" 
d="M919 738l-150 148q-11 10 -25 10h-594q-14 0 -24.5 -10t-10.5 -25v-846q0 -15 11 -25l105 -106q10 -9 24 -9t25 9l107 108l111 -108q10 -10 24 -10t25 10l111 108l111 -108q10 -10 24 -10t25 10l100 97q11 11 11 25v707q0 15 -10 25zM289 598h221q13 0 22 -9t9 -22
t-9 -22t-22 -9h-221q-13 0 -22 9t-9 22t9 22t22 9zM740 193h-451q-13 0 -22 9t-9 22t9 22t22 9h451q12 0 21.5 -9t9.5 -21.5t-9.5 -22t-21.5 -9.5zM740 365h-451q-13 0 -22 9t-9 21.5t9 22t22 9.5h451q12 0 21.5 -9.5t9.5 -22t-9.5 -21.5t-21.5 -9zM852 653h-130
q-21 0 -36.5 15t-15.5 36v114q0 13 9 22t22 9t22 -9t9 -22v-104h120q13 0 22 -9t9 -21.5t-9 -21.5t-22 -9z" />
    <glyph glyph-name="uniE60C" unicode="&#xe60c;" 
d="M364 6h-204v767h703v-268h58q44 0 70 -26v320q0 38 -29 67t-67 29h-767q-38 0 -67 -29t-29 -67v-831q0 -38 29 -67t67 -29h256q-26 38 -26 70v64h6zM288 581h447v-63h-447v63zM288 198h76v-64h-76v64zM288 390h76q0 25 26 64h-96v-64h-6zM288 326h76v-64h-76v64zM921 454
h-429q-28 0 -49 -21t-21 -50v-428q0 -29 21 -49.5t49 -20.5h429q28 0 49 20.5t21 49.5v428q0 29 -21 50t-49 21zM876 57q5 -5 5 -8.5t-5 -3.5l-51 -52q0 -3 -2 -4t-5 0t-6 4h-7l-108 109l-109 -109h-6h-13l-51 52q-7 6 0 12v7l108 108l-108 109v7v12l51 51q5 5 6.5 5t6.5 -5
h6l109 -108l109 108h6h13l51 -51q6 -6 0 -13v-6l-109 -109z" />
    <glyph glyph-name="uniE60D" unicode="&#xe60d;" 
d="M755 599l-243 -242l-243 242q-10 10 -23.5 10t-23.5 -9.5t-10 -23.5t10 -24l243 -243l-243 -243q-10 -9 -10 -23t10 -24t23.5 -10t23.5 10l243 243l243 -243q10 -10 23.5 -10t23.5 10t10 24t-10 23l-243 243l243 243q10 10 10 24t-10 23.5t-23.5 9.5t-23.5 -10z" />
    <glyph glyph-name="uniE60E" unicode="&#xe60e;" horiz-adv-x="1025" 
d="M885 458q-66 -64 -91 -97q-2 -2 -7 -6.5t-7 -6.5q-7 -9 -22.5 -25.5t-22.5 -25.5q-1 0 -7 -6t-9 -8q-11 -15 -37.5 -42t-37.5 -42q-5 -6 -16 -16t-15 -15q-12 -15 -38 -42t-38 -42q-3 -5 -13.5 -14.5t-14.5 -15.5h-2q25 62 59.5 144t68 161.5t59.5 144.5h87q31 0 34 2
q11 4 2 18q-11 2 -25 3t-36.5 0t-28.5 -1h-33q-1 1 -2.5 3.5t-2 5.5t-1.5 5q-3 6 -9.5 18.5t-9.5 19.5q-9 17 -25.5 50t-24.5 48q-1 2 -9.5 21t-14.5 27v1q45 0 48 -1h44q3 -2 8 -8t7 -8q8 -6 22 -18.5t21 -18.5q13 -9 36 -30.5t35 -30.5q6 -5 18.5 -15t18.5 -15q2 -3 7 -8
q1 -1 3.5 -2t3.5 -2q23 0 27 15q2 3 1 15q-39 40 -79 71q-10 7 -29.5 25t-30.5 26q-2 2 -24.5 23.5t-32.5 24.5h-445q-1 -1 -4 -2t-4 -2l-9 -9q-13 -10 -36.5 -34.5t-37.5 -35.5q-21 -22 -32 -33q-11 -8 -21 -18l-24 -24l-20 -20q-10 -9 -25 -23q-2 -3 -8 -9t-8 -9
q-16 -12 -20 -17q0 -1 -1 -4t-2 -4q0 -11 4.5 -18t12.5 -14t12 -11q10 -13 32.5 -37t32.5 -37q4 -5 13.5 -13.5t13.5 -12.5q19 -26 64.5 -72.5t65.5 -72.5q6 -8 19.5 -21.5t19.5 -21.5q8 -10 26.5 -28.5t26.5 -28.5l13 -12q8 -11 26.5 -30.5t26.5 -29.5l13 -12
q9 -12 29.5 -32.5t28.5 -32.5q21 -2 26 0q6 4 27 31q7 9 23 25.5t22 25.5q4 4 12 11t11 11q9 12 28 32.5t27 31.5l12 10q7 10 22 26.5t22 25.5l12 11q21 27 98 108q14 14 37.5 41.5t34.5 39.5q20 21 12 32q-4 10 -23 9zM573 725q2 -7 5.5 -14t9 -16t7.5 -13q7 -14 21 -43
t22 -43l12 -24l12 -24q0 -1 3 -8.5t6 -10.5v-3h-351q3 13 14 35l12 24q7 15 19.5 45t18.5 45q1 1 11 20t12 30h166zM107 566q19 18 56.5 55t55.5 56q2 2 21.5 19t26.5 28q53 -1 56 1h63q-15 -33 -44.5 -99t-44.5 -100h-231q6 9 22.5 23.5t18.5 16.5zM455 85q-4 6 -14.5 16.5
t-15.5 16.5l-6 6q-6 5 -10 8q-11 15 -37 42t-38 42l-6 6q-6 5 -9 8q-11 14 -18 21l-12 11q-5 6 -15.5 16.5t-14.5 16.5q-18 23 -60.5 65.5t-60.5 66.5q0 1 -6 6.5t-9 8.5q-7 9 -23 25.5t-23 25.5q-1 2 -5 5t-6 6h231q26 -65 59.5 -145t67.5 -160.5t60 -144.5q-11 7 -29 31z
M496 69l-2 -2q-2 7 -22 55q-5 12 -13.5 34t-13.5 32q-14 35 -40.5 104.5t-41.5 104.5q-5 12 -15 37t-15 37q-13 30 -13 33h351q0 -3 -13 -33q-5 -11 -15 -37t-16 -39q-13 -29 -35.5 -87.5t-35.5 -87.5q-7 -18 -21 -53t-20 -51q-1 -2 -7.5 -21t-11.5 -26zM1002 517
q-34 8 -41 13q-11 8 -21 45q0 3 -0.5 8.5t-1.5 7.5q0 6 -3 8q1 -47 -18 -65.5t-66 -17.5q3 -3 12 -3.5t11 -1.5q30 -8 40 -16q10 -7 19 -41q0 -2 0.5 -7.5t1.5 -7.5v-9q3 1 5.5 11t5 21t4.5 14q15 34 73 38q-3 2 -9.5 2t-11.5 1z" />
    <glyph glyph-name="uniE60F" unicode="&#xe60f;" 
d="M284 416h59v126h-59v-126zM284 360h59v-150h-59v150zM518 479q5 -7 16.5 -23t12.5 -17q3 -5 5.5 -9t3.5 -6.5t1 -3.5q2 -5 -5 -5h-14q-3 0 -12 -1q-12 0 -21 1q-10 0 -16 -5t-3 -12q1 -5 1 -15v-13q0 -6 4 -7h8h74q15 0 15 -6v-17q0 -6 -3 -6h-6h-12h-34h-19h-14
q-7 1 -9 -4q-3 -5 -4 -11q-1 -5 0 -9q1 -5 1 -10q0 -16 16 -16h76q7 0 8 -2q1 -1 1 -8q1 -8 0 -30v-10v-8v-4q0 -13 15 -13h28q10 0 10 6v9v49q0 13 10 13h11h18q14 1 20 1h23q17 0 17 12v25q0 11 -12 11h-77q-12 -3 -12 5q0 2 -0.5 6.5t-0.5 10.5q0 2 1.5 2t2.5 1q4 3 9 3
h78q12 0 12 8v28q0 5 -4 9q-4 5 -10 5h-49q-6 0 -12 1.5t-3 7.5q0 1 1.5 3t4 6t5.5 9q3 4 10.5 18t12.5 20q3 4 11 15t12 17q12 17 13 19q6 9 -7 23q-2 3 -10 8q-7 5 -13 7q-10 4 -14 1q-4 -2 -10 -11l-12 -18q0 -1 -20 -30q-8 -13 -19 -30q-9 -13 -10 -15q-3 -5 -9 -4
q-7 1 -9 6q-2 4 -11 15q-10 12 -20 26q-7 11 -21 28q-11 14 -13 19q-11 21 -23 13q-9 -5 -15 -10q-6 -6 -12 -10q-12 -8 -4 -22q19 -22 36 -46zM942 752h-860q-33 0 -56 -24t-23 -57v-90v-76q52 -12 78 -53q22 -35 22 -64q0 -30 -23 -67q-24 -38 -77 -49v-77v-90
q0 -33 23 -57t56 -24h860q33 0 56 24t23 57v90v77q-48 11 -74 54q-25 42 -25 62q0 21 25 62q26 43 74 54v77v90q0 33 -23 57t-56 24zM971 553q-46 -29 -74.5 -71.5t-28.5 -93.5t28.5 -93t74.5 -71v-147h-628v76h-59v-76h-231v140q45 27 74 73t29 98.5t-29 98t-74 73.5v139
h231v-76h59v76h628v-146z" />
    <glyph glyph-name="uniE610" unicode="&#xe610;" 
d="M1 -212h1022v1023zM615 -169l-247 238l114 114l129 -120l252 264l121 -112z" />
    <glyph glyph-name="uniE611" unicode="&#xe611;" 
d="M745 -118q-78 0 -208 80q-122 75 -239 189l-1 1l-24 24q-114 117 -189 239q-80 129 -80 208q0 77 71 172q14 18 29.5 35.5t44 38.5t51.5 21q29 0 71 -43q31 -32 66 -82q33 -48 56 -91q26 -50 26 -75q0 -32 -33 -55q-14 -9 -48 -24q-30 -13 -37 -18q6 -25 42 -77
q42 -62 91 -113q51 -49 113 -91q52 -36 77 -42q5 7 18 37q15 34 25 48q22 33 55 33q24 0 74 -26q43 -23 91 -56q50 -35 82 -66q43 -42 43 -71q0 -23 -20.5 -51.5t-38.5 -44t-36 -29.5q-94 -71 -172 -71zM339 194q113 -110 229 -182q115 -70 177 -70q56 0 134 57q33 24 54 49
q16 18 19 29q-5 10 -31.5 35t-73.5 58q-42 29 -79 49q-33 17 -46 19q-4 -3 -9 -12q-6 -10 -17 -34q-13 -30 -21 -43q-20 -30 -48 -30h-1q-37 1 -112 52q-67 46 -122 99q-53 55 -99 122q-51 75 -52 112q0 29 30 49q12 8 43 21q24 11 34 17q9 5 12 9q-2 13 -19 46
q-20 37 -49 79q-33 47 -58 73.5t-35 31.5q-11 -3 -29 -19q-25 -21 -49 -54q-57 -78 -57 -134q0 -62 70 -177q72 -116 182 -229zM694 407q-8 0 -14.5 5t-7.5 13q-8 47 -49 74q-42 28 -93 19q-9 -2 -16 3.5t-9 14.5t3.5 16t14.5 9q68 12 124 -25q56 -38 68 -103
q2 -9 -3.5 -16.5t-14.5 -8.5q-1 -1 -3 -1zM825 464q-8 0 -14 5t-8 13q-16 91 -95 143q-80 53 -178 36q-9 -2 -16 3.5t-9 14.5t3.5 16t14.5 9q114 20 209 -42q95 -63 114 -173q2 -9 -3 -16t-14 -9h-4zM1000 480q-8 0 -14 5t-7 13q-14 75 -56 138.5t-107 106.5q-66 43 -144 59
t-158 2q-9 -2 -16.5 3t-9 14t4 16.5t14.5 9.5q88 15 174 -2.5t159 -65.5t120 -118.5t62 -154.5q1 -9 -4 -16.5t-14 -9.5h-4z" />
    <glyph glyph-name="uniE612" unicode="&#xe612;" 
d="M868 811q0 35 -24 60t-57 25h-549q-34 0 -57.5 -25t-23.5 -60v-852q0 -35 23.5 -60t57.5 -25h549q33 0 57 25t24 60v852zM512 -45q-31 0 -53 23t-22 56q0 32 22 55.5t53 23.5t53 -23t22 -56t-22 -56t-53 -23zM787 198q0 -21 -14 -36t-34 -15h-454q-20 0 -34 15t-14 36
v567q0 21 14 35.5t34 14.5h454q20 0 34 -14.5t14 -35.5v-567z" />
    <glyph glyph-name="uniE613" unicode="&#xe613;" 
d="M513 623q56 0 105 -25t81 -69l29 -8q-33 56 -90.5 89t-124.5 33q-65 0 -122 -31l30 -8q44 19 92 19zM665 636l16 -13l5 20l18 10l-18 11l-5 19l-16 -13l-21 2l8 -19l-8 -18zM385 680l-17 11l-3 -20l-17 -13l18 -9l6 -19l15 15l21 1l-9 18l7 19zM540 708l-12 16l-10 -18
l-20 -7l15 -14v-21l19 10l20 -5l-3 20l12 16zM765 582l-17 12l-3 -20l-16 -12l19 -10l7 -19l14 14h21l-10 19l6 19zM991 430l-873 234q-16 4 -30.5 -4t-18.5 -24l-63 -233q-4 -16 4.5 -30.5t24.5 -18.5l873 -234q16 -5 30.5 3.5t18.5 24.5l63 233q4 16 -4 30.5t-25 18.5z
M998 376l-57 -213q-4 -12 -14.5 -18.5t-22.5 -3.5l-854 229q-12 4 -18.5 14.5t-3.5 22.5l58 214q3 12 14 18t23 3l854 -229q12 -3 18 -14t3 -23zM513 754q124 0 221 -75.5t129 -193.5l22 -5q-30 127 -134 210.5t-238 83.5q-80 0 -152 -32t-126 -88l22 -6q50 50 116.5 78
t139.5 28zM605 180q-44 -19 -92 -19q-56 0 -104.5 25t-81.5 68l-29 8q33 -55 90.5 -88t124.5 -33q65 0 122 31zM390 138l-16 13l-5 -19l-18 -11l18 -11l5 -19l16 13l21 -2l-8 19l8 19zM513 76l12 -16l10 19l20 7l-15 14v20l-18 -10l-20 6l3 -20l-12 -17zM259 203l17 -14
l3 20l17 11l-18 11l-5 20l-15 -14l-21 2l9 -19l-7 -19zM513 30q-124 0 -221 75.5t-128 192.5l-23 6q30 -128 134 -211t238 -83q81 0 153 32t125 88l-22 6q-50 -50 -116 -78t-140 -28zM658 104l17 -12l3 21l17 12l-18 9l-6 20l-15 -16h-20l9 -18l-7 -20zM344 413
q16 -12 30 -21q-1 -1 -6 -12q-7 -13 -13 -23q-12 -23 -51 -13l-92 24q-45 12 -33 57l24 90l30 -8l-5 -21l103 -27l11 45l-139 36l8 29l170 -45l-27 -102l-133 35l-10 -39q-6 -21 14 -26l79 -20q21 -5 26 8q1 2 3.5 8.5t5.5 11.5q1 3 3 7.5t2 5.5zM479 321q23 -7 90 -22
q6 -2 11.5 -3t10.5 -2.5t7 -1.5q-13 -17 -17 -24q-67 17 -117 32q-32 9 -41 30q-22 -11 -31 -19l-4 35q6 4 13 6q3 2 13 6l15 58l-20 5l8 28l48 -12l-22 -86q8 -22 36 -30zM437 505l27 8q6 -16 16 -45q-3 -2 -17 -6q-6 -1 -14 -4q-5 18 -9 36q-3 8 -3 11zM478 423l28 11
q5 -8 23 -49q-5 13 -6 14l7 -19l-8 -4q-1 0 -8 -2.5t-13 -5.5q-2 3 -7 17l-6 13q-5 13 -10 25zM569 448l10 34l30 -8l-9 -34l30 -8l-6 -26l-30 8l-18 -70q-9 -35 -42 -28q-26 5 -42 10v4q2 9 1 28q1 -1 16 -6q13 -3 17 -5q16 -4 20 14l16 61l-82 22l6 26zM775 410l-7 -24
l-11 2l-23 -89l11 -3l-7 -26l-31 9q9 -14 17 -29q21 16 36 73l25 96l78 -21l-45 -172q-5 -19 -25 -16q-8 2 -28 6v12q2 10 1 17q8 -3 17 -6q9 -2 12 7l7 27l-28 7q-13 -39 -37 -60l-4 4q-5 7 -13 16l-18 -8q-10 22 -19 38l22 10l-46 12l14 -19q-17 -11 -39 -25q-4 6 -11 15
q-1 2 -3 5l-2 2q17 8 36 22l-29 8l6 25l17 -4l24 90l-15 3l7 25l14 -4l5 18l25 -6l-4 -18l31 -8l5 17l27 -7l-5 -17zM680 330l-4 -16l31 -8l4 15zM689 366l-4 -14l32 -8l4 14zM699 404l-4 -15l32 -8l4 14zM782 304l28 -6l6 27l-27 7q-5 -22 -7 -28zM824 350l7 29l-27 7
l-8 -30z" />
    <glyph glyph-name="uniE614" unicode="&#xe614;" 
d="M1021 678q0 17 -12.5 29t-29.5 12h-768l-22 103q-1 6 -4 11q-4 13 -15 21t-24 8h-104q-18 0 -30 -12t-12 -29.5t12 -29.5t30 -12h71l133 -626q3 -14 13.5 -23t24.5 -10q5 -1 11 -1h542q17 0 29 12t12 29t-12 29.5t-29 12.5h-516l-22 106h561q15 0 26 10q11 7 15 19
l114 314q2 6 3 11q3 8 3 16v0zM832 392h-551l-52 244h693zM280 -12q0 35 24.5 59.5t59 24.5t59 -24.5t24.5 -59t-24.5 -59t-59 -24.5t-59 24.5t-24.5 58.5zM676 -11.5q0 34.5 24 59t58.5 24.5t59 -24.5t24.5 -59t-24.5 -59t-59 -24.5t-58.5 24.5t-24 59z" />
    <glyph glyph-name="uniE615" unicode="&#xe615;" 
d="M921 809h-817q-42 0 -72 -29.5t-30 -72.5v-646q0 -43 30 -72.5t72 -29.5h817q42 0 72 29.5t30 72.5v646q0 43 -30 72.5t-72 29.5zM955 95q0 -28 -20 -48t-48 -20h-749q-28 0 -48 20t-20 48v374h885v68h-885v136q0 28 20 48t48 20h749q28 0 48 -20t20 -48v-578zM138 163
h204v68h-204v-68z" />
    <glyph glyph-name="uniE616" unicode="&#xe616;" horiz-adv-x="1025" 
d="M652 805q8 0 15 -1l226 -3q22 -3 40 -23t18 -42l-19 -228q0 -34 -19 -78t-44 -66l-430 -386q-13 -12 -31 -12q-22 0 -36 16l-289 323q-12 15 -11 35t15 33l430 385q22 20 61.5 33.5t73.5 13.5zM652 877q-47 0 -99 -18.5t-84 -47.5l-429 -385q-37 -33 -40 -82.5t30 -85.5
l289 -323q35 -40 89 -40q45 0 79 30l430 386q37 32 62 90.5t24 107.5l19 228q-1 49 -36 89t-84 46l-226 3q-12 2 -24 2v0zM731.5 655q22.5 0 38.5 -16t16 -38.5t-16 -38.5t-38.5 -16t-38.5 16t-16 38.5t16 38.5t38.5 16zM732 727q-52 0 -89 -37t-37 -89t37 -89t89 -37t89 37
t37 89t-37 89t-89 37v0z" />
    <glyph glyph-name="uniE617" unicode="&#xe617;" 
d="M786 -42l-428 423l425 430q14 15 14 35t-14 34q-14 15 -34 14t-34 -19l-454 -454q-13 -14 -15 -19q-11 -29 11 -58l460 -460q14 -11 34.5 -10t34.5 15t14 34t-14 35z" />
    <glyph glyph-name="uniE618" unicode="&#xe618;" 
d="M328 307h-146q-16 0 -26.5 10.5t-10.5 26t10.5 26t26.5 10.5h109v110q0 15 11 25.5t26 10.5t25.5 -10.5t10.5 -25.5v-147q0 -15 -10.5 -25.5t-25.5 -10.5zM728 203q-53 0 -93.5 -32.5t-52.5 -82.5h-141q-12 50 -52.5 82.5t-92.5 32.5q-62 0 -106 -44t-44 -106t44 -106
t106 -44q51 0 90.5 31.5t52.5 79.5h145q13 -48 53 -79.5t91 -31.5q62 0 106 44t44 106t-44 106t-106 44zM295.5 -23q-31.5 0 -54 22.5t-22.5 54t22.5 54t54 22.5t54 -22.5t22.5 -54t-22.5 -54t-54 -22.5zM727.5 -23q-31.5 0 -54 22.5t-22.5 54t22.5 54t54 22.5t54 -22.5
t22.5 -54t-22.5 -54t-54 -22.5zM913 855h-531q-37 0 -64 -26.5t-27 -64.5v-106l-222 -111q-2 -1 -4 -3q-64 -45 -64 -128v-367q0 -15 10.5 -26t25.5 -11t26 11t11 26v367q0 44 30 67l240 120q1 0 2 1l2 2q6 4 6 5q3 2 4 6q3 5 4 6q0 2 1 7q0 1 0.5 3t0.5 3v128q0 7 5.5 12.5
t12.5 5.5h531q15 0 25.5 -11t10.5 -26v-694q0 -15 10.5 -25.5t26 -10.5t26 10.5t10.5 25.5v694q0 45 -32 77.5t-77 32.5zM843 493l-72 19l-75 -43l74 -43l73 20l9 -35l-38 -10l34 -20l-17 -31l-35 20l10 -38l-34 -9l-19 72l-75 43v-75l53 -52l-25 -25l-28 28v-52h-35v52
l-28 -28l-25 25l53 52v75l-65 -37l-19 -73l-34 10l10 38l-45 -26l-17 31l45 26l-39 11l9 33l72 -19l65 37l-65 38l-72 -20l-9 34l38 10l-45 26l18 31l45 -26l-10 38l34 10l19 -73l65 -37v86l-53 53l25 25l28 -28v40h35v-40l28 28l25 -25l-53 -53v-86l75 43l19 73l34 -10
l-10 -38l35 20l17 -31l-34 -20l38 -10z" />
    <glyph glyph-name="uniE619" unicode="&#xe619;" 
d="M987 719q-42 2 -108.5 21.5t-123.5 42t-121 52t-87 41t-36 18.5h-5q-13 -7 -35 -18.5t-85 -41t-118.5 -52t-121 -42t-108.5 -21.5q-2 -24 -3 -73.5t7.5 -125.5t20.5 -150.5t36 -148t54 -117.5q25 -37 74.5 -75.5t105.5 -68.5t98 -49.5t74 -30.5q0 -1 1 -1.5t4.5 -1
t7.5 1.5q266 101 355 225q33 50 57.5 125.5t37 149.5t18.5 146.5t5.5 122.5t-4.5 71zM357 112h-48h-5v5q2 34 2 115v215q-27 -47 -53 -79l-4 -5l-3 5q-11 21 -30 35l-4 3l3 4q50 59 85 135q36 76 47 133l1 7l6 -4q19 -15 52 -24l5 -2l-3 -4q-12 -17 -26 -48q-18 -39 -24 -57
v-311q0 -82 2 -118v-5h-3zM799 203q-19 -17 -35 -45l-2 -4l-4 2q-59 32 -97 81q-31 40 -49 79v-112q0 -59 2 -87l1 -5h-5h-50h-5v5q3 29 3 81v131q-57 -107 -141 -177l-3 -3l-3 4q-14 21 -41 32l-8 4l7 4q81 44 136 152h-27q-54 0 -84 -3h-5v4v47v4h5q28 -3 79 -3h85v69
h-106h-5l1 5q2 29 2 91.5t-2 89.5l-1 4h5h273h5l-1 -4q-2 -31 -2 -94q0 -59 2 -87l1 -5h-5h-112v-69h68q69 0 101 2l5 1v-5v-46v-4h-5q-35 2 -96 2h-35q21 -42 57 -79q37 -37 90 -56l7 -2zM501 605h173v-95h-173v95z" />
    <glyph glyph-name="uniE61A" unicode="&#xe61a;" 
d="M512 894q-104 0 -198.5 -40t-163 -108.5t-108.5 -163t-40 -198.5t40 -198.5t108.5 -163t163 -108.5t198.5 -40t198.5 40t163 108.5t108.5 163t40 198.5t-40 198.5t-108.5 163t-163 108.5t-198.5 40zM102 348q-15 0 -25.5 10.5t-10.5 25.5t10.5 26t25.5 11t26 -11t11 -26
t-11 -25.5t-26 -10.5zM512 830q15 0 25.5 -10.5t10.5 -25.5t-10.5 -26t-25.5 -11t-25.5 11t-10.5 26t10.5 25.5t25.5 10.5zM512 -66q-15 0 -25.5 11t-10.5 26t10.5 25.5t25.5 10.5t25.5 -10.5t10.5 -25.5t-10.5 -26t-25.5 -11zM812 604l-197 -184q12 -30 5.5 -62.5
t-30.5 -55.5q-32 -33 -77.5 -33t-77.5 33q-24 23 -30 56t6 62l-136 123q-12 12 -12 30t12.5 30.5t30.5 12.5t31 -12l135 -123q41 17 82 0l197 184q12 12 30 12t30.5 -12.5t12.5 -30.5t-12 -30zM922 348q-15 0 -26 10.5t-11 25.5t11 25.5t26 10.5t25.5 -10.5t10.5 -25.5
t-10.5 -25.5t-25.5 -10.5z" />
    <glyph glyph-name="uniE61B" unicode="&#xe61b;" 
d="M512 896q-111 0 -205.5 -56t-149.5 -152.5t-55 -210.5q0 -47 23.5 -106.5t57.5 -114t81 -115t86 -103.5t81.5 -86.5t57.5 -57.5t23 -22q9 8 23.5 22t57 57t81.5 86.5t86 104t81 115t57.5 114t23.5 106.5q0 114 -55 210.5t-149.5 152.5t-205.5 56zM512 266
q-91 0 -155.5 64.5t-64.5 156t64.5 156t155.5 64.5t155.5 -64.5t64.5 -156t-64.5 -156t-155.5 -64.5z" />
    <glyph glyph-name="uniE61C" unicode="&#xe61c;" 
d="M1005 500l-70 171h-423h-424l-70 -171q-13 -25 -13 -51q0 -50 37.5 -85.5t89.5 -35.5t89.5 35.5t37.5 85.5q0 -50 37 -85.5t89 -35.5t89.5 35t37.5 85q0 -50 37 -85t89.5 -35t89.5 35.5t37 85.5q0 -50 37 -85.5t89.5 -35.5t89.5 35.5t37 85.5q0 26 -13 51zM915 742h-807
q-14 0 -24 9.5t-10 23t10 23t24 9.5h807q15 0 25 -9.5t10 -23t-10 -23t-25 -9.5zM915 -56h-807q-14 0 -24 9.5t-10 23.5v269q0 14 10 23.5t24 9.5t24 -9.5t10 -23.5v-236h739v236q0 14 10 23.5t24 9.5t24.5 -9.5t10.5 -23.5v-269q0 -14 -10 -23.5t-25 -9.5z" />
    <glyph glyph-name="uniE61D" unicode="&#xe61d;" 
d="M953 505v136l-118 69l-68 118h-137l-118 68l-118 -68h-137l-68 -118l-119 -69v-136l-68 -119l69 -118v-136l118 -68l68 -119h137l118 -68l119 68h136l68 119l118 68v136l69 118zM789 518h-41l-184 -368h-102l-184 368h-41v41h122l154 -307l153 307h123v-41z" />
    <glyph glyph-name="uniE61E" unicode="&#xe61e;" 
d="M982 583q-39 91 -109.5 161.5t-161.5 109.5q-95 40 -198.5 40t-198.5 -40q-92 -39 -162.5 -109.5t-108.5 -161.5q-40 -95 -40 -199t40 -198q38 -92 108.5 -162.5t162.5 -109.5q95 -40 198 -40q99 0 190 37q17 7 24.5 24.5t0.5 35t-24.5 25t-34.5 0.5q-75 -30 -156 -30
q-113 0 -209 56t-152 152.5t-56 209.5t56 209.5t152 152.5t209.5 56t209.5 -56t152 -152.5t56 -209.5q0 -84 -32 -161t-92 -136q-13 -13 -13.5 -32t13 -32.5t32.5 -14t33 13.5q71 70 110 162q41 96 41 200t-40 199zM687.5 559.5q-13.5 13.5 -32.5 13.5t-33 -14l-110 -110
l-110 110q-13 14 -32 14t-32.5 -13.5t-13.5 -32.5t13 -33l110 -110l-110 -110q-13 -13 -13 -32t13.5 -32.5t32.5 -13.5t32 13l110 110l110 -110q14 -13 33 -13t32.5 13.5t13.5 32.5t-14 32l-110 110l110 110q14 14 14 33t-13.5 32.5z" />
    <glyph glyph-name="uniE61F" unicode="&#xe61f;" 
d="M827 542q-28 26 -82 79t-81 79q-5 6 -7 6t-8 -6q-329 -328 -370 -369q-9 -9 -12 -20q-12 -46 -57 -212q-5 -17 -6 -19q1 -6 7 -3l1 1q36 10 112.5 31t117.5 32q7 2 14 9q124 123 371 370q8 8 8 11t-8 11zM736 541q-28 -28 -140 -139q-188 -189 -205 -206q-8 -7 -17 -10
q-2 0 -75 -21q-7 -2 -7 3q16 59 18 67q4 20 22 38q25 24 306 306q5 5 15.5 15t15.5 15t10 0q12 -10 31 -29.5t27 -26.5q5 -5 -1 -12zM1022 780q-4 48 -39.5 81.5t-86.5 34t-88 -36.5q-17 -16 -47.5 -47t-44.5 -44q-6 -7 0 -13q22 -20 58 -56q60 -57 112 -108q6 -6 11 0
l45 45l45 45q34 34 37 89q-1 9 -2 10zM939 722l-23 -23l-22 -22q-3 -3 -6 0q-22 22 -55 54q-3 2 -13 13l-16 15q-4 3 0 6q7 8 22.5 23t22.5 23q19 18 44.5 18t43 -17t19.5 -41v-2q1 -2 1 -3q-1 -27 -18 -44zM1021 528q-2 0 -6 -4l-33 -32l-32 -33v-349q0 -76 -56 -125
q-46 -40 -105 -40q-278 -1 -557 0q-57 0 -102 38q-57 50 -57 128v544q0 76 55 126q42 38 98 40q9 1 144 1h216l65 65q5 5 4 6q0 1 -7 1h-301q-155 0 -168 -1q-65 -3 -114 -46q-65 -59 -64 -147v-634q0 -91 67 -148q52 -45 118 -45q266 -1 648 0q69 0 123 47q65 57 65 145
v456q0 6 -1 7z" />
    <glyph glyph-name="uniE620" unicode="&#xe620;" 
d="M220 621q11 -12 27.5 -12t27.5 11.5t11 28t-11 27.5l-69 69q-12 12 -28 12t-27.5 -11.5t-11.5 -28t11 -27.5zM176 384q0 16 -11.5 27.5t-27.5 11.5h-98q-16 0 -27.5 -11.5t-11.5 -27.5t11.5 -27.5t27.5 -11.5h98q16 0 27.5 11.5t11.5 27.5zM804 620l70 69q11 12 11 28
t-11.5 27.5t-27.5 11.5t-28 -11l-69 -70q-12 -11 -12 -27.5t11.5 -28t28 -11.5t27.5 12zM503 719h19q12 0 20.5 8.5t8.5 20.5v117q0 13 -8.5 21.5t-20.5 8.5h-19q-13 0 -21.5 -8.5t-8.5 -21.5v-117q0 -12 8.5 -20.5t21.5 -8.5zM219 147l-70 -69q-11 -12 -11 -28t11.5 -27.5
t27.5 -11.5t28 11l69 70q12 11 12 27.5t-11.5 27.5t-28 11t-27.5 -11zM984 422h-98q-16 0 -27.5 -11.5t-11.5 -28t11.5 -28t27.5 -11.5h98q16 0 27.5 11.5t11.5 28t-11.5 28t-27.5 11.5zM803 146q-11 12 -27.5 12t-27.5 -11.5t-11 -28t11 -27.5l69 -70q12 -11 28 -11
t27.5 11.5t11.5 27.5t-11 28zM511 48q-16 0 -27.5 -11.5t-11.5 -27.5v-98q0 -16 11.5 -27.5t27.5 -11.5t27.5 11.5t11.5 27.5v98q0 16 -11.5 27.5t-27.5 11.5zM512 679q-122 0 -208 -86t-86 -207.5t86 -208t208 -86.5t208 86.5t86 208t-86 207.5t-208 86zM512 170
q-89 0 -152 63t-63 152.5t63 152.5t152 63t152.5 -63t63.5 -152.5t-63.5 -152.5t-152.5 -63zM468 553l3 -8l2 -9q5 1 14 2t34 -0.5t47.5 -9.5t48.5 -29.5t43 -55.5l5 4l8 8q0 1 -7 13t-22.5 30t-39.5 33t-58 23t-78 -1z" />
    <glyph glyph-name="uniE621" unicode="&#xe621;" 
d="M517.5 685q-120.5 0 -205 -84t-84.5 -203t84.5 -203t205 -84t205 84t84.5 203t-84.5 203t-205 84zM517.5 172q-94.5 0 -161.5 66t-67 160t67 160t161.5 66t161.5 -66t67 -160t-67 -160t-161.5 -66zM521 759q13 0 21.5 9t8.5 21v74q0 12 -8.5 21t-21.5 9t-22 -9t-9 -21
v-74q0 -12 9 -21t22 -9zM264 657q13 0 21.5 8.5t8.5 21t-8 21.5l-53 52q-9 9 -21.5 9t-21.5 -9t-9 -21.5t9 -21.5l52 -52q9 -8 22 -8zM155 465h-74q-12 0 -21 -9t-9 -21.5t9 -21.5t21 -9h74q13 0 22 9t9 21.5t-9 21.5t-22 9zM953 458h-74q-12 0 -21 -9t-9 -21.5t9 -21.5
t21 -9h74q13 0 22 9t9 21.5t-9 21.5t-22 9zM775.5 652q12.5 0 21.5 9l53 52q9 8 9 20.5t-9 21.5t-22 9t-21 -9l-53 -51q-9 -9 -9 -21.5t9 -21.5t21.5 -9zM630 51h-225q-13 0 -22 -9t-9 -21.5t9 -21.5t22 -9h225q13 0 22 9t9 21.5t-9 21.5t-22 9zM589 -64h-144q-12 0 -21 -9
t-9 -21.5t9 -21.5t21 -9h144q13 0 22 9t9 21.5t-9 21.5t-22 9zM517.5 685q-120.5 0 -205 -84t-84.5 -203t84.5 -203t205 -84t205 84t84.5 203t-84.5 203t-205 84zM517.5 172q-94.5 0 -161.5 66t-67 160t67 160t161.5 66t161.5 -66t67 -160t-67 -160t-161.5 -66zM521 759
q13 0 21.5 9t8.5 21v74q0 12 -8.5 21t-21.5 9t-22 -9t-9 -21v-74q0 -12 9 -21t22 -9zM264 657q13 0 21.5 8.5t8.5 21t-8 21.5l-53 52q-9 9 -21.5 9t-21.5 -9t-9 -21.5t9 -21.5l52 -52q9 -8 22 -8zM155 465h-74q-12 0 -21 -9t-9 -21.5t9 -21.5t21 -9h74q13 0 22 9t9 21.5
t-9 21.5t-22 9zM953 458h-74q-12 0 -21 -9t-9 -21.5t9 -21.5t21 -9h74q13 0 22 9t9 21.5t-9 21.5t-22 9zM775.5 652q12.5 0 21.5 9l53 52q9 8 9 20.5t-9 21.5t-22 9t-21 -9l-53 -51q-9 -9 -9 -21.5t9 -21.5t21.5 -9zM630 51h-225q-13 0 -22 -9t-9 -21.5t9 -21.5t22 -9h225
q13 0 22 9t9 21.5t-9 21.5t-22 9zM589 -64h-144q-12 0 -21 -9t-9 -21.5t9 -21.5t21 -9h144q13 0 22 9t9 21.5t-9 21.5t-22 9z" />
    <glyph glyph-name="uniE622" unicode="&#xe622;" 
d="M983 583q-39 92 -110 163q-70 70 -162 109q-95 40 -198.5 40t-198.5 -40q-91 -39 -162 -109.5t-110 -162.5q-40 -95 -40 -198.5t40 -198.5q39 -91 110 -162q70 -71 162 -109q95 -40 198.5 -40t198.5 40q91 38 162 109t109 162q41 95 41 199q0 103 -40 198zM782 522
l-309 -320q-9 -10 -23 -10q-12 0 -21 9l-187 172q-10 9 -10.5 22t8.5 23t23 10q12 0 21 -8l165 -152l288 298q9 9 23 9q13 0 22 -9t9.5 -22t-9.5 -22z" />
    <glyph glyph-name="uniE623" unicode="&#xe623;" 
d="M512 -125q-104 0 -198 40.5t-162.5 108.5t-109 162.5t-40.5 198t40.5 198t109 162.5t162.5 108.5t198 40.5t198 -40.5t162.5 -108.5t109 -162.5t40.5 -198t-40.5 -198t-109 -162.5t-162.5 -108.5t-198 -40.5zM560 655q0 20 -14 34t-34 14t-34 -14t-14 -34v-350
q0 -20 14 -34t34 -14t34 14t14 34v350zM512 162q-20 0 -34 -14t-14 -34t14 -34t34 -14t34 14t14 34t-14 34t-34 14z" />
    <glyph glyph-name="uniE624" unicode="&#xe624;" horiz-adv-x="1025" 
d="M547 763v-38l64 -14v52h-64zM413 763v-52l52 18v34h-52zM471 896v-127h76v63h64v64h-140zM70 483v-132h96v66h-41v66h-55zM0 351h65v-56h-65v56zM416 10h56v-58h-56v58zM715 59l-32 -41h57zM618 1h59v-72h132v-57h-337v56h144zM886 274l-50 -93l50 -27v120zM886 139h138
v-138zM891 483h64v-57h-64v57zM891 346h73v80h60v-212h-55v81h-78v51zM803 783h107v-110h-107v110zM749 657v182h208v-218h-171l50 -69h188v344h-348v-194zM118 783h106v-105h-106v105zM271 638v194h-210v-214h201l-47 -66h-215v344h349v-218zM118 100h112v-112h-112v112z
M275 113v-177h-210v218h179l-38 67h-206v-349h340v182zM522 639h16q9 0 37 -4.5t53.5 -12.5t57.5 -27.5t55.5 -46t41 -71t19.5 -99.5q1 -6 0.5 -15.5t-5 -37.5t-13.5 -54t-29.5 -57.5t-49 -54.5t-76 -40t-107.5 -19q-5 1 -14.5 2t-37 7t-52 16.5t-54.5 31.5t-51.5 49t-35 73
t-12.5 99h-70q-1 -7 -0.5 -18.5t6.5 -45.5t17 -65t35 -69.5t57.5 -66.5t89 -49.5t123.5 -24.5q8 0 20 0.5t47 6.5t66.5 17t71 36t68 59.5t48.5 91.5t21 128v18q0 11 -6 44t-17 62.5t-36.5 66.5t-61 64t-93.5 46t-131 20zM522 639q-5 0 -13.5 -0.5t-33.5 -5.5t-48 -13.5
t-51.5 -28t-50.5 -46t-39 -70t-21 -97.5h-70q0 6 1 17.5t8.5 43.5t19 61.5t36.5 66t58 63.5t85.5 47t116.5 22zM730 100l209 -210q4 -3 10 -6.5t23 -4.5t33 11q1 2 3 4t6.5 9t5.5 14.5t-2.5 19.5t-12.5 24l-208 201q-46 -49 -67 -62z" />
    <glyph glyph-name="uniE625" unicode="&#xe625;" 
d="M1007 451q23 22 13.5 52t-42.5 36l-269 36q-30 15 -37 29l-116 241q-11 27 -44 27t-44 -27l-117 -241q-5 -11 -15.5 -20t-20.5 -9l-270 -36q-32 -6 -41.5 -32.5t12.5 -47.5l190 -190q14 -14 14 -44l-43 -269q-6 -28 20 -47.5t52 -3.5l241 124q22 11 44 0l240 -124
q28 -17 53.5 0.5t19.5 50.5l-44 262q0 29 15 44zM767 313q-37 -37 -37 -95v-7l30 -190q0 -10 -8.5 -15t-13.5 1l-175 87q-29 15 -58 15q-22 0 -52 -15l-174 -87q-15 -7 -23 5q-3 5 1 9l36 197v7q0 59 -36 95l-132 131q-5 6 -0.5 15t15.5 14l182 22q31 0 57 22t38 51l80 168
q6 11 15 11t14 -11l81 -168q14 -43 80 -65q22 -7 73 -14t91 -11l40 -5q11 0 14 -9t-7 -20z" />
    <glyph glyph-name="uniE626" unicode="&#xe626;" 
d="M126 518q-7 0 -12 -4t-5.5 -10.5t4 -11.5t10.5 -6h23q25 0 52 3t63.5 10.5t69.5 26.5t54 47q9 12 -3.5 21.5t-22.5 -3.5q-17 -23 -47.5 -39.5t-60.5 -22.5t-60 -9.5t-46.5 -2t-18.5 0.5zM883 486q7 1 11 6t4 11t-5 10.5t-12 4.5q-6 -1 -19 -1t-45.5 2.5t-61 9t-59.5 23
t-48 39.5q-10 13 -22.5 3.5t-3.5 -21.5q21 -28 53.5 -47t69.5 -27t63.5 -10.5t52.5 -2.5h22zM749 660v113l64 -113h17h16v157h-15h-16v-111l-63 111h-17h-17v-157h15h16zM1002 799q-21 22 -55.5 22t-55 -22.5t-20.5 -61.5q0 -37 20.5 -59.5t55 -22.5t55 22.5t20.5 59.5
q0 39 -20 62zM978 698q-12 -15 -32 -15t-31 14.5t-11 40.5t11 40.5t31 14.5t31.5 -14.5t11.5 -40.5t-11 -40zM983 620q-7 0 -11.5 -4.5t-4.5 -11.5v-451q0 -13 -9 -22.5t-22 -10.5q-1 5 -4 10l-1 1q-3 4 -4 6q-1 0 -1.5 0.5t-0.5 1t-0.5 1t-1.5 0.5l-6 6q-2 2 -4 2
q-2 2 -6 4q0 1 -1 2h-2l-1 1q-7 3 -15 6q-2 0 -6 2q-9 2 -17 3h-1q-2 1 -3 1q-8 1 -18 1h-1h-3q-11 0 -24 -1h-1q-59 -8 -115 -46h-1l-1 -1h-346l-2 2h-1q-12 8 -25 15l-1 1q-2 1 -3 1q-13 7 -26 13q-1 0 -2.5 0.5t-2.5 0.5q-26 10 -51 13q-1 1 -3 1h-2q-12 1 -22 1h-6
q-8 0 -16 -1h-2q-2 0 -3 -1q-8 -1 -17 -3q-4 -2 -6 -2q-8 -3 -15 -6h-1q0 -1 -1 -1.5t-2 -0.5q-4 -3 -7 -5q-1 0 -2 -2q-4 -2 -8 -6q0 -1 -0.5 -1t-1 -1t-1.5 -1q-1 -2 -4 -6l-1 -1q-3 -5 -4 -9h-47q-14 0 -23 9t-9 23v598q0 14 9 23t23 9h579q7 0 11.5 5t4.5 11.5t-4.5 11
t-11.5 4.5h-579q-27 0 -45.5 -19t-18.5 -45v-598q0 -27 18.5 -45.5t45.5 -18.5h47q4 -14 16 -26q3 -3 7 -4q90 -23 103 -59q5 -15 -4 -27q-10 -12 2.5 -21.5t22.5 2.5q19 25 9 56q-17 50 -121 78q-7 9 -7 17q0 6 6 12q3 4 8 7q2 1 3 2q3 1 10 4q1 0 2.5 1t2.5 1q19 5 42 5
q1 0 4 -1h2q10 0 19 -2q2 -1 11 -2q6 -2 15 -4q7 -3 13 -5t16 -7q10 -4 13 -6q11 -6 24 -15q1 0 3 -1t3 -2q31 -22 53 -42.5t30.5 -33t14 -24t4 -15.5t-0.5 -6q-3 -6 -1 -12t8 -9q3 -2 7 -2q10 0 14 8q2 5 3.5 10.5t-0.5 18t-8.5 26.5t-24 35t-44.5 43h264
q-27 -22 -44.5 -43t-24.5 -35t-8.5 -26.5t-0.5 -18t4 -10.5q4 -8 14 -8q4 0 7 1q14 8 7 21q0 1 -0.5 2.5t0.5 8t3.5 12.5t9.5 17t18 22.5t29 27.5t42 32q13 10 30 18q1 1 10 6q11 4 19 7q5 2 11 4q9 3 17 5q9 2 10 2l18 2h3q3 1 4 1q23 0 41 -5q2 -1 5 -2q1 0 2 -1
q7 -2 9 -3q1 -1 3 -2q5 -3 8 -7q6 -6 6 -12q0 -8 -8 -17q-103 -28 -120 -78q-10 -31 9 -56q10 -12 22.5 -2.5t2.5 21.5q-9 13 -4 27q13 36 103 59q4 1 7 4q12 12 16 26q26 1 44 19.5t18 44.5v451q0 7 -4.5 11.5t-10.5 4.5zM363 614q11 0 22 2q6 1 9.5 6t2.5 11.5t-6.5 10.5
t-11.5 2q-32 -5 -51 6q-5 3 -11.5 1.5t-9.5 -6.5q-8 -14 5 -22q19 -11 51 -11zM624 640q-6 1 -11.5 -2.5t-7 -9.5t2 -11.5t9.5 -7.5q7 -1 16 -1q29 0 56 14q6 3 8 9t-1 12q-7 14 -21 7q-29 -15 -51 -10zM500 271q34 0 68 7t57.5 16.5t45.5 21.5t29.5 17.5t11.5 8.5
q13 10 3 22.5t-22 2.5q-3 -2 -10 -7t-27 -16t-41.5 -19.5t-53 -15.5t-61.5 -7q-31 0 -59.5 7t-46.5 15t-34 19t-21 15.5t-7 6.5q-11 12 -22.5 1.5t-0.5 -22.5q3 -4 9 -9t24 -17.5t38.5 -22t52.5 -17t67 -7.5z" />
    <glyph glyph-name="uniE627" unicode="&#xe627;" 
d="M508 -70q-3 0 -36.5 45t-65.5 90l-33 45l-6 7h-289q-25 0 -42 9.5t-24 24.5t-9 25t-2 18v565q0 25 9.5 42t25 24t27 9.5t21.5 2.5h6v0h714h135q29 -6 45.5 -13.5t25.5 -25.5q5 -8 8.5 -18t3.5 -15v-5v-566q-1 -22 -10 -37.5t-20 -23t-21.5 -11.5t-17.5 -5h-8h-295l-7 -7z
M412 149l96 -148l97 141q21 33 45 33h276q12 0 25.5 10.5t13.5 27.5v0v521q0 13 -13 25q-5 9 -10 11t-16 2h-829q-18 0 -28.5 -10.5t-10.5 -21.5v-520q0 -23 11.5 -34t27.5 -11v0h90h167q24 0 36 -5.5t22 -20.5zM251 387v64h514v-64h-514zM251 515v65h514v-65h-514z" />
    <glyph glyph-name="uniE628" unicode="&#xe628;" 
d="M959.5 512.5q-6.5 18.5 -25.5 21.5l-271 42l-120 259q-9 18 -30 18q-20 0 -29 -18l-122 -258l-271 -41q-19 -3 -25 -21.5t7 -32.5l197 -203l-47 -285q-3 -19 13 -31t34 -2l242 133l242 -134q7 -4 15 -4h1q13 0 22.5 9.5t9.5 22.5q0 6 -2 12l-45 279l197 201
q14 14 7.5 32.5z" />
    <glyph glyph-name="uniE629" unicode="&#xe629;" 
d="M988 717q-43 1 -107.5 20t-126.5 44.5t-118 50.5t-90 43l-35 17h-5q-13 -7 -35 -18.5t-85 -41t-118.5 -52.5t-121 -42.5t-108.5 -20.5q-2 -24 -3 -73.5t7.5 -126t20.5 -150.5t36 -148t54 -118q24 -37 73.5 -75.5t105.5 -68.5t98.5 -49.5t74.5 -31.5h1q1 -1 4.5 -1.5
t7.5 1.5q267 101 356 225q33 50 57.5 125.5t36.5 150t18.5 146.5t6 122t-4.5 72zM755 425h-196v-92h197v-76h-197v-174h-93v174h-194v76h194v92h-194v77h158l-103 183h102q80 -149 84 -162q2 6 23 47t42 78l20 37h102l-104 -183h160q-1 0 -1 -39v-38z" />
    <glyph glyph-name="uniE62A" unicode="&#xe62a;" 
d="M1008 371v5h-1q-1 5 -5 10v1l-1 1h-1l-190 174v1q-8 7 -18 7q-11 0 -19 -8q-7 -8 -7 -18.5t8 -18.5v-1l141 -130h-313q-11 0 -18.5 -7.5t-7.5 -18.5t7.5 -18.5t18.5 -7.5h312l-141 -128q-8 -8 -8 -18q-1 -11 6 -19h1q8 -8 19 -8q9 0 17 6h1l191 174q3 2 6 7l1 1l1 5
q1 6 0 9zM328 336q-9 0 -15.5 -6.5t-6.5 -15.5v-11q0 -9 6.5 -15.5t15.5 -6.5h130q9 0 15.5 6.5t6.5 15.5v11q0 9 -6.5 15.5t-15.5 6.5h-130zM691 100v-19q0 -7 -4.5 -11t-10.5 -4h-595q-6 0 -10.5 4t-4.5 11v356q0 6 4.5 10.5t10.5 4.5h657v254q0 9 -6 15t-14 6h-681
q-8 0 -14.5 -6t-6.5 -15v-669q0 -9 6.5 -15t14.5 -6h681q8 0 14 6t6 15v252h-47v-189zM66 659q0 6 4 10.5t11 4.5h594q7 0 11 -4.5t4 -10.5v-139q0 -11 -11 -15h-602h-1q-10 4 -10 15v139z" />
    <glyph glyph-name="uniE62B" unicode="&#xe62b;" 
d="M707 459q-95 0 -162.5 -70t-67.5 -169q0 -98 67.5 -168t162.5 -70q94 0 161.5 70t67.5 168q0 99 -67.5 169t-161.5 70zM707 20q-80 0 -137 58.5t-57 141.5q0 84 56.5 143t137.5 59q80 0 136.5 -59t56.5 -143q0 -83 -57 -142t-136 -58zM788 313l-126 -157l-65 64
q-13 12 -25 -1q-5 -5 -4.5 -12.5t5.5 -12.5l79 -78q4 -4 12 -4h1q6 0 13 7l136 171q11 13 -1 26q-6 5 -13.5 4t-11.5 -7zM300 260q-6 0 -10.5 -5t-4.5 -13v-9q0 -8 4.5 -13t10.5 -5h141q7 0 12 5t5 13v9q0 7 -5 12.5t-12 5.5h-141zM583 422h-283q-6 0 -10.5 -5.5t-4.5 -13.5
v-9q0 -7 4.5 -12t10.5 -5h233q17 20 50 45zM597 592h-297q-6 0 -10.5 -5.5t-4.5 -13.5v-8q0 -8 4.5 -13t10.5 -5h297q7 0 11 5t4 13v8q0 8 -4 13.5t-11 5.5zM561 37v-10h-378q-8 0 -13.5 6t-5.5 14v686q0 8 5.5 14t13.5 6h532q7 0 13 -6t6 -14v-275q29 -5 43 -11v314
q0 15 -10 26t-24 11h-588q-15 0 -25 -11t-10 -26v-742q0 -15 10 -26t25 -11h418q16 4 29 18l7 6q-26 12 -48 31z" />
    <glyph glyph-name="uniE62C" unicode="&#xe62c;" 
d="M57 705h510v-419h-510v419zM13 749v-508h598v508h-598zM329 150.5q0 9.5 6.5 16t15.5 6.5h227q10 0 16 -6.5t6 -16t-6.5 -16t-15.5 -6.5h-227q-9 0 -15.5 6.5t-6.5 16zM174 155q25 0 43 -18t18 -43t-18 -43t-43 -18t-43 18t-18 43t18 43t43 18zM174 199
q-44 0 -74.5 -30.5t-30.5 -74.5t30.5 -75t74.5 -31t74.5 31t30.5 74.5t-30.5 74.5t-74.5 31zM709 541h157l102 -199v-189h-38q-19 59 -69 96t-114 37q-19 0 -38 -3v258zM665 585v-367q38 24 82 24q57 0 99.5 -38.5t48.5 -94.5h117v243l-119 233h-228zM747 155q25 0 43 -18
t18 -43t-17.5 -43t-43 -18t-43.5 18t-18 43t18 43t43 18zM747 199q-43 0 -74 -30.5t-31 -74.5t31 -75t74.5 -31t74.5 31t31 74.5t-31 74.5t-75 31z" />
    <glyph glyph-name="uniE62D" unicode="&#xe62d;" 
d="M299 21q-10 -23 -31 -37t-47 -14q-35 0 -60 25t-25 60q0 26 14.5 47t36.5 30v618h-85v34h85h34v-644q35 0 60 -25t25 -60h610v-34h-617zM221 106q-21 0 -36 -15t-15 -36t15 -36t36 -15t36 15t15 36t-15 36t-36 15zM289 699h627v-576h-627v576zM662 665h-119v-203h119v203
zM323 157h559v508h-186v-237h-187v237h-186v-508zM374 614h84v-33h-84v33z" />
    <glyph glyph-name="uniE62E" unicode="&#xe62e;" 
d="M512 -128q-44 0 -101.5 25t-114 69.5t-104.5 99t-78 121t-30 128.5v429l43 1q9 0 29 1.5t70.5 12t94.5 27.5q44 18 87 41t57.5 32.5t20.5 14.5l26 18l25 -18q64 -46 166 -88q44 -17 94.5 -27.5t71 -12t28.5 -1.5l43 -1v-429q0 -62 -30 -128.5t-78 -121t-104.5 -99
t-114 -69.5t-101.5 -25zM171 662v-347q0 -59 39 -125.5t94 -116t113 -82.5t95 -33t95 33t113 82.5t94 116t39 125.5v347q-97 10 -182 45q-86 34 -159 80q-72 -45 -159 -80q-85 -35 -182 -45zM489 154l-182 154l56 65l117 -99l221 254l65 -56z" />
    <glyph glyph-name="uniE62F" unicode="&#xe62f;" 
d="M352 29v-1q-5 0 -10 -0.5t-6 -0.5h-4q-58 0 -100 41t-43 100q-2 60 39 103t100 45h2h2q46 0 84 -27q52 -19 104 51q51 68 21 107q-10 8 -21 18q-1 2 -3 4q-35 39 -36 91q-2 59 39 102t100 45h2h2q50 0 89.5 -31.5t50.5 -80.5q4 -15 7.5 -34t2.5 -56.5t-10.5 -76.5
t-35.5 -93.5t-66 -109.5q-47 -62 -96.5 -104.5t-91.5 -60.5t-70 -24.5t-52 -6.5zM347 101q11 0 23.5 1.5t40.5 10.5t55.5 25t65 50t72.5 81q43 58 67.5 114t27.5 96.5t1 61.5t-6 36q-6 26 -25.5 42t-44.5 16q-31 -1 -51.5 -22.5t-19.5 -50.5q1 -26 18 -45l1 -1q7 -8 13 -12
q4 -3 7 -6q11 -12 18.5 -28t12.5 -41.5t-6 -60t-40 -72.5q-62 -83 -139 -83q-28 0 -54 11q-5 2 -8 5q-20 15 -44 15q-32 -1 -52 -22t-19 -51q1 -29 21.5 -49t49.5 -20h4q6 0 11 -1zM513 -121q-102 0 -196 39q-14 6 -19.5 20t0.5 27.5t19.5 19.5t27.5 0q80 -34 168 -34
t168 34.5t138.5 92.5t92.5 138t34 168t-34 168.5t-92.5 138.5t-138.5 92.5t-168 34.5t-168 -34.5t-138.5 -92.5t-92.5 -138.5t-34 -168.5q0 -124 66 -230q8 -12 4.5 -27t-16 -22.5t-27 -4.5t-22.5 16q-77 123 -77 268q0 103 40 196.5t107.5 161.5t161 108t196.5 40
t196.5 -40t161 -108t108 -161.5t40.5 -196t-40.5 -196.5t-108 -161.5t-161 -107.5t-196.5 -40z" />
    <glyph glyph-name="uniE630" unicode="&#xe630;" 
d="M512 618q56 0 105 -25t81 -69l29 -8q-33 56 -90 89t-125 33q-65 0 -121 -31l29 -8q44 19 92 19zM664 631l16 -13l5 20l18 10l-18 11l-5 19l-16 -13l-21 2l8 -19l-8 -18zM384 675l-16 11l-4 -20l-17 -13l18 -9l6 -19l15 15l21 1l-9 18l7 20zM540 703l-13 16l-9 -18l-20 -7
l14 -14v-20l19 9l20 -5l-3 20l12 16zM764 577l-17 12l-3 -20l-16 -12l19 -9l7 -20l14 14h21l-10 19l6 19zM990 425l-873 234q-16 4 -30.5 -4t-18.5 -24l-62 -233q-4 -16 4 -30.5t24 -18.5l873 -234q16 -4 30.5 4t18.5 24l63 233q4 16 -4 30.5t-25 18.5zM997 372l-57 -214
q-4 -12 -14.5 -18t-22.5 -3l-854 229q-12 3 -18 14t-3 22l57 214q3 12 14 18t23 3l854 -229q12 -3 18 -13.5t3 -22.5zM512 749q125 0 221.5 -75.5t128.5 -192.5l22 -6q-30 127 -134 210.5t-238 83.5q-80 0 -152 -32t-126 -88l23 -6q50 50 116 78t139 28zM604 175
q-43 -19 -92 -19q-56 0 -104.5 25t-80.5 69l-30 8q34 -56 91 -89t124 -33q65 0 122 31zM389 134l-16 12l-5 -19l-18 -11l18 -10l5 -20l16 13l21 -1l-8 18l8 19zM512 72l12 -16l10 18l20 7l-15 14v20l-18 -10l-20 6l3 -20l-12 -17zM258 198l17 -13l4 19l17 11l-18 11l-6 20
l-15 -14l-21 2l9 -19l-7 -19zM512 25q-124 0 -221 75.5t-128 192.5l-22 6q30 -127 133.5 -210.5t237.5 -83.5q81 0 153 32t125 88l-22 6q-50 -50 -116 -78t-140 -28zM658 99l16 -11l4 20l16 12l-18 9l-6 20l-15 -15l-20 -1l9 -18l-7 -20zM352 406q17 -13 30 -22
q-2 -6 -6 -13q-8 -15 -13 -24q-12 -24 -53 -13l-94 25q-46 12 -34 59l25 93l31 -9l-5 -21l105 -28l13 46l-143 38l8 30l174 -47l-28 -105l-137 36l-10 -39q-6 -22 15 -27l81 -22q22 -5 27 8q5 11 9 22q3 9 5 13zM473 508l27 -15q-13 -22 -28 -43l-42 -158l-27 8l26 98
l-23 -23q3 21 4 43q37 39 63 90zM468 350l22 9l-21 6l19 73l53 -14l5 16l-60 16l7 25l59 -15l6 20l29 -8l-5 -20l62 -17l-7 -25l-62 16l-5 -16l53 -14l-22 -82l-27 7l2 9l-26 8q-6 -22 -16 -33q28 -19 69 -31q-10 -11 -23 -25q-41 15 -70 40q-20 -7 -59 -8q-1 5 -4 11
q-3 12 -6 18q30 -3 46 0q-12 16 -19 34zM511 329q6 9 11 22l-30 8q5 -16 19 -30zM509 407l-6 -26l25 -7l7 26zM557 367l26 -7l7 26l-26 6zM869 393l-45 -170q-7 -27 -35 -22l-33 9q2 16 0 31q2 -1 11 -3q7 -3 12 -4q14 -5 17 9l5 20l-44 12l-16 -60l-31 9l16 59l-46 12
q-17 -46 -36 -60q-11 14 -23 26q23 16 38 79l27 102zM695 350l-7 -28l45 -12l7 28zM710 404l-8 -26l46 -12l7 26zM771 329l-7 -27l45 -12l7 27zM824 346l6 26l-44 12l-7 -26z" />
    <glyph glyph-name="uniE631" unicode="&#xe631;" horiz-adv-x="1025" 
d="M1012 522q-467 328 -471 331q-22 15 -29 15t-30 -16l-470 -330q-11 -7 -12 -22t7 -27q9 -12 23.5 -15.5t24.5 4.5l32 24v-546q0 -15 11 -26.5t27 -11.5t26.5 11t10.5 27v596l350 247l356 -251v-593q0 -16 11 -27t27 -11q15 0 26 11t11 27v539l25 -16q11 -7 24.5 -4
t23.5 15q9 14 7.5 27.5t-11.5 21.5v0zM321 240q0 -7 4.5 -12t11.5 -5h356q7 0 12 4.5t5 12.5v32q0 7 -4.5 11.5t-12.5 4.5h-356q-6 0 -11 -4.5t-5 -11.5v-32zM321 117q0 -7 4.5 -11.5t11.5 -4.5h356q7 0 12 4.5t5 11.5v33q0 6 -4.5 11t-12.5 5h-356q-6 0 -11 -4.5t-5 -11.5
v-33zM337 350h356q7 0 12 4.5t5 11.5v32q0 7 -4.5 12t-12.5 5h-356q-6 0 -11 -4.5t-5 -12.5v-32q0 -6 4.5 -11t11.5 -5zM321 0q0 -7 4.5 -11.5t11.5 -4.5h356q7 0 12 4t5 12v32q0 7 -4.5 11.5t-12.5 4.5h-356q-6 0 -11 -4t-5 -12v-32z" />
    <glyph glyph-name="uniE632" unicode="&#xe632;" 
d="M192 577q0 -9 -6.5 -15.5t-16.5 -6.5h-83q-9 0 -16 6.5t-7 15.5v84q0 9 7 15.5t16 6.5h83q10 0 16.5 -6.5t6.5 -15.5v-84zM958 577q0 -9 -7 -15.5t-16 -6.5h-624q-9 0 -15.5 6.5t-6.5 15.5v84q0 9 6.5 15.5t15.5 6.5h624q9 0 16 -6.5t7 -15.5v-84zM190 258
q0 -9 -6.5 -15.5t-15.5 -6.5h-82q-10 0 -16.5 6.5t-6.5 15.5v83q0 9 6.5 15.5t16.5 6.5h82q9 0 15.5 -6.5t6.5 -15.5v-83zM958 258q0 -9 -7 -15.5t-16 -6.5h-624q-9 0 -15.5 6.5t-6.5 15.5v83q0 9 6.5 15.5t15.5 6.5h624q9 0 16 -6.5t7 -15.5v-83zM191 -60q0 -10 -6.5 -16.5
t-15.5 -6.5h-83q-10 0 -16.5 6.5t-6.5 16.5v83q0 9 6.5 15.5t16.5 6.5h83q9 0 15.5 -6.5t6.5 -15.5v-83zM958 -60q0 -10 -7 -16.5t-16 -6.5h-624q-9 0 -15.5 6.5t-6.5 16.5v83q0 9 6.5 15.5t15.5 6.5h624q9 0 16 -6.5t7 -15.5v-83z" />
    <glyph glyph-name="uniE633" unicode="&#xe633;" 
d="M188 652h271v-271h-271v271zM188 246h271v-272h-271v272zM593 246h271v-272h-271v272zM593 652h271v-271h-271v271z" />
    <glyph glyph-name="uniE634" unicode="&#xe634;" 
d="M999 653q-67 5 -124 23q-18 5 -37 12q-41 12 -100 44h-1q-14 8 -29 17q-18 10 -39 23h-1v1q-15 10 -28 19q-5 3 -18 13q-1 1 -6 4t-7 5q-51 38 -96 82q-45 -44 -96 -82q-3 -2 -7.5 -5.5t-6.5 -3.5q-12 -10 -17 -13q-14 -10 -28 -19v-1h-2q-21 -14 -39 -23q-14 -9 -28 -17
h-1q-59 -32 -101 -44q-19 -7 -36 -12q-58 -18 -124 -23q0 -8 4 -73q11 -152 60 -287q1 -2 2 -6t2 -6l1 -2q1 -2 1 -3q57 -146 151.5 -247t212.5 -139v-1q27 -9 52 -14q25 5 52 14v1q117 38 212 139t151 247q1 1 1.5 3t0.5 3q1 1 2.5 5t1.5 6q49 135 60 287h1q3 61 4 73z
M917 593q-11 -245 -123 -425q-53 -86 -123 -144q-72 -59 -154 -83h-2h-2h-2h-2q-83 24 -154 83q-70 58 -124 144q-111 180 -122 425v5l5 1q201 44 390 200l9 7l9 -7q189 -156 389 -200l6 -1v-5zM476 177q-10 0 -16 7l-17 15l-1 1v0l-183 170q-6 7 -6 15.5t6 15.5l17 15
q7 6 16.5 6t16.5 -6l167 -156l284 265q7 6 16.5 6t16.5 -6l16 -16q7 -6 7 -15t-7 -15l-317 -295q-6 -7 -16 -7z" />
    <glyph glyph-name="uniE635" unicode="&#xe635;" 
d="M954.5 639.5q-7.5 12.5 -21.5 16.5t-27 -4l-101 -58v101q0 9 -6.5 15t-15 6t-15 -6t-6.5 -15v-126l-214 -124v248l109 63q7 5 9.5 13t-2 16t-13 10t-15.5 -2l-88 -51v117q0 15 -10.5 25t-25 10t-25 -10t-10.5 -25v-117l-87 51q-8 4 -16.5 2t-13 -10t-2 -16t10.5 -13
l108 -63v-248l-214 124v126q0 9 -6.5 15t-15 6t-14.5 -6t-6 -15v-101l-102 58q-12 8 -26.5 4t-21.5 -16.5t-3.5 -26.5t16.5 -22l101 -58l-87 -51q-8 -4 -10.5 -12.5t2.5 -16.5q6 -10 18 -10q6 0 11 3l109 62l214 -124l-214 -123l-109 62q-8 5 -16.5 2.5t-12.5 -10t-2 -16
t10 -12.5l87 -51l-101 -58q-13 -8 -16.5 -22t3.5 -26q10 -18 31 -18q9 0 17 5l102 58v-101q0 -9 6 -15t14.5 -6t15 6t6.5 15v126l214 124v-248l-108 -63q-8 -5 -10 -13t2 -16q6 -11 18 -11q6 0 11 3l87 51v-117q0 -15 10.5 -25t25 -10t25 10t10.5 25v117l88 -51q5 -3 10 -3
q12 0 18 11q5 8 2.5 16t-9.5 13l-109 63v248l214 -124v-126q0 -9 6.5 -15t15 -6t15 6t6.5 15v101l101 -58q8 -5 18 -5q20 0 30 18q8 12 4 26t-17 22l-101 58l88 51q7 4 9.5 12.5t-2 16t-13 10t-15.5 -2.5l-109 -62l-215 124l215 123l109 -62q4 -3 10 -3q12 0 18 10
q5 8 2.5 16.5t-9.5 12.5l-88 51l101 58q13 8 17 22t-3.5 26.5z" />
    <glyph glyph-name="uniE636" unicode="&#xe636;" 
d="M832 512h-640q-29 0 -46.5 17.5t-17.5 46.5t17.5 46.5t46.5 17.5h640q29 0 46.5 -17.5t17.5 -46.5t-17.5 -46.5t-46.5 -17.5zM832 128h-640q-29 0 -46.5 17.5t-17.5 46.5t17.5 46.5t46.5 17.5h640q29 0 46.5 -17.5t17.5 -46.5t-17.5 -46.5t-46.5 -17.5z" />
    <glyph glyph-name="uniE637" unicode="&#xe637;" 
d="M538 443h2q97 6 158 42.5t61 87.5q0 11 -8 19t-19 8t-19 -8t-8 -19q0 -25 -48 -48.5t-121 -28.5q-11 -1 -18 -9t-7 -19q1 -11 9 -18t18 -7zM506 551q104 0 177 33.5t73 81.5t-73 82t-177 34t-177.5 -34t-73.5 -82t73.5 -81.5t177.5 -33.5zM351 699q63 29 155 29t155 -29
q15 -7 25.5 -15t13.5 -12t3 -6t-3.5 -6.5t-14 -12t-24.5 -14.5q-63 -29 -155 -29t-155 29q-15 7 -25 14.5t-13.5 12t-3.5 6.5t3 6t13 12t26 15zM732 495q-11 0 -19 -8t-8 -19q0 -24 -46 -47t-116 -29q-11 -1 -18 -9.5t-6 -19.5q1 -10 8.5 -17t17.5 -7h3q93 7 152 43.5
t59 85.5q0 11 -8 19t-19 8zM769.5 23q108.5 0 181 37.5t72.5 93.5q0 12 -8 19.5t-19 7.5t-19 -7.5t-8 -19.5q0 -27 -56.5 -52t-143 -25t-143 25t-56.5 53q0 11 -8 18.5t-19 7.5t-19 -7.5t-8 -18.5q0 -56 72.5 -94t181 -38zM519 248q0 -48 73.5 -82t177.5 -34t177 34t73 82
t-73.5 82t-177 34t-177 -34t-73.5 -82zM967 248q0 -2 -3.5 -6.5t-14 -12t-25.5 -14.5q-62 -29 -154 -29t-155 29q-15 7 -25 14.5t-13.5 12t-3.5 6.5t3.5 6.5t13.5 12t25 14.5q63 29 155 29t154 -29q15 -7 25.5 -14.5t14 -12t3.5 -6.5zM996 77q-11 0 -19 -8t-8 -19
q0 -27 -56.5 -52.5t-143 -25.5t-143 25.5t-56.5 52.5q0 11 -8 19t-19 8t-19 -8t-8 -19q0 -56 72.5 -93.5t181 -37.5t181 37.5t72.5 93.5q0 11 -8 19t-19 8zM481.5 368q-11.5 0 -19 -7.5t-7.5 -18.5q0 -28 -57 -53t-143 -25t-142.5 25t-56.5 53q0 11 -8 18.5t-19 7.5
t-19 -7.5t-8 -18.5q0 -56 72.5 -94t180.5 -38t180.5 38t72.5 94q0 11 -7.5 18.5t-19 7.5zM255 320q104 0 177.5 33.5t73.5 81.5t-73.5 82t-177.5 34t-177 -34t-73 -82t73 -81.5t177 -33.5zM100 468q63 29 155 29t155 -29q14 -7 24.5 -14.5t14 -12t3.5 -6.5t-3.5 -6.5
t-14 -12t-24.5 -14.5q-63 -29 -155 -29t-155 29q-14 7 -24.5 14.5t-14 12t-3.5 6.5t3.5 6.5t14 12t24.5 14.5zM481.5 264q-11.5 0 -19 -8t-7.5 -19q0 -27 -57 -52.5t-143 -25.5t-142.5 25.5t-56.5 52.5q0 11 -8 19t-19 8t-19 -8t-8 -19q0 -56 72.5 -93.5t180.5 -37.5
t180.5 37.5t72.5 93.5q0 11 -7.5 19t-19 8zM481.5 159q-11.5 0 -19 -8t-7.5 -19q0 -27 -57 -52t-143 -25t-142.5 25t-56.5 52q0 11 -8 19t-19 8t-19 -7.5t-8 -19.5q0 -56 72.5 -93.5t180.5 -37.5t180.5 37.5t72.5 93.5q0 12 -7.5 19.5t-19 7.5zM481.5 55q-11.5 0 -19 -8
t-7.5 -19q0 -27 -57 -52.5t-143 -25.5t-142.5 25.5t-56.5 52.5q0 11 -8 19t-19 8t-19 -8t-8 -19q0 -56 72.5 -93.5t180.5 -37.5t180.5 37.5t72.5 93.5q0 11 -7.5 19t-19 8zM916 579l43 47l64 5l-47 43l-6 64l-43 -47l-63 -5l47 -44zM916 459l43 28l-49 13l-28 43l-13 -50
l-43 -28l50 -13l28 -43zM800 744l7 28l24 16l-28 7l-15 24l-8 -28l-24 -15l28 -7zM122 592l13 49l43 28l-50 13l-28 43l-12 -50l-43 -28l49 -13zM184 799l7 28l24 16l-27 7l-16 24l-7 -28l-24 -15l27 -7z" />
    <glyph glyph-name="uniE638" unicode="&#xe638;" 
d="M29 297h398q12 0 19.5 8t7.5 19q0 12 -8 19.5t-19 7.5h-398q-10 3 -19 -5t-9 -19q0 -12 8.5 -21t19.5 -9zM29 467h398q12 0 19.5 8t7.5 19q0 13 -8 20.5t-19 7.5h-398q-10 2 -19 -6t-9 -18q0 -13 8.5 -22t19.5 -9zM86 637h399q12 0 19.5 8.5t7.5 19.5q0 12 -8 19.5
t-19 7.5h-399q-12 2 -19.5 -5.5t-7.5 -18.5q0 -13 7.5 -22t19.5 -9zM1019 368l-224 317q-7 7 -21 7h-119v116q0 12 -8 19.5t-19 7.5h-456q-13 0 -20.5 -8.5t-7.5 -19t7.5 -19t20.5 -8.5h425v-85v-368q0 -12 8.5 -19.5t18.5 -7.5h341v-197h-61q-11 49 -50 80.5t-90 31.5
t-90 -31.5t-50 -80.5h-231q-10 49 -49.5 80.5t-90.5 31.5t-90 -31.5t-49 -80.5h-85q-13 0 -20.5 -8.5t-7.5 -18.5q0 -13 8.5 -20.5t19.5 -7.5h88q10 -48 49.5 -80t90.5 -32t90 32t49 80h232q10 -48 49.5 -80t90 -32t90 32t49.5 80h89q12 0 19.5 8.5t7.5 19.5v282q0 2 -2 5.5
t-2 4.5zM256.5 -13q-35.5 0 -60 24.5t-24.5 60.5t24.5 60.5t60 24.5t60.5 -24.5t25 -60.5t-25 -60.5t-60.5 -24.5zM767.5 -13q-35.5 0 -60.5 24.5t-25 60.5t25 60.5t60.5 24.5t60.5 -24.5t25 -60.5t-25 -60.5t-60.5 -24.5zM761 637l201 -282h-307v282h106z" />
    <glyph glyph-name="uniE639" unicode="&#xe639;" 
d="M943.5 -125q-14.5 0 -24.5 10t-10 25q0 73 -40 152.5t-93 132.5q-10 10 -10 24.5t10.5 24.5t24.5 10t24 -10q63 -62 108 -154t45 -180q0 -15 -10 -25t-24.5 -10zM86.5 -125q-14.5 0 -24.5 10t-10 25q0 88 45 180t107 154q68 68 158 102q-67 40 -105.5 107.5t-38.5 146.5
q0 122 87 209t209.5 87t209.5 -87t87 -209.5t-87 -209.5t-209 -87h-11q-71 -2 -135.5 -30t-115.5 -78q-53 -53 -92.5 -132.5t-39.5 -152.5q0 -15 -10 -25t-24.5 -10zM515 373q2 0 4 -1q92 2 157.5 68.5t65.5 158.5q0 94 -66.5 161t-160.5 67t-160.5 -67t-66.5 -160
q0 -92 62.5 -157.5t153.5 -69.5h11z" />
    <glyph glyph-name="uniE63A" unicode="&#xe63a;" 
d="M827 542q-28 26 -82 79t-81 79q-5 6 -7 6t-8 -6q-329 -328 -370 -369q-9 -9 -12 -20q-12 -46 -57 -212q-5 -17 -6 -19q1 -6 7 -3l1 1q36 10 112.5 31t117.5 32q7 2 14 9q124 123 371 370q8 8 8 11t-8 11zM736 541q-28 -28 -140 -139q-188 -189 -205 -206q-8 -7 -17 -10
q-2 0 -75 -21q-7 -2 -7 3q16 59 18 67q4 20 22 38q25 24 306 306q5 5 15.5 15t15.5 15t10 0q12 -10 31 -29.5t27 -26.5q5 -5 -1 -12zM1022 780q-4 48 -39.5 81.5t-86.5 34t-88 -36.5q-17 -16 -47.5 -47t-44.5 -44q-6 -7 0 -13q22 -20 58 -56q60 -57 112 -108q6 -6 11 0
l45 45l45 45q34 34 37 89q-1 9 -2 10zM939 722l-23 -23l-22 -22q-3 -3 -6 0q-22 22 -55 54q-3 2 -13 13l-16 15q-4 3 0 6q7 8 22.5 23t22.5 23q19 18 44.5 18t43 -17t19.5 -41v-2q1 -2 1 -3q-1 -27 -18 -44zM1021 528q-2 0 -6 -4l-33 -32l-32 -33v-349q0 -76 -56 -125
q-46 -40 -105 -40q-278 -1 -557 0q-57 0 -102 38q-57 50 -57 128v544q0 76 55 126q42 38 98 40q9 1 144 1h216l65 65q5 5 4 6q0 1 -7 1h-301q-155 0 -168 -1q-65 -3 -114 -46q-65 -59 -64 -147v-634q0 -91 67 -148q52 -45 118 -45q266 -1 648 0q69 0 123 47q65 57 65 145
v456q0 6 -1 7z" />
    <glyph glyph-name="uniE63B" unicode="&#xe63b;" 
d="M964 542q-36 0 -36 -19v-537q0 -40 -27 -40h-794q-13 0 -26.5 13t-13.5 27v795q0 11 13 18.5t27 7.5h539q16 0 33 11.5t17 25.5t-16.5 23.5t-33.5 9.5h-606q-15 -3 -27 -11t-12 -19v-927q0 -14 13 -27t26 -13h927q27 0 27 40v603q0 11 -7 15t-23 4zM1014 883
q-10 10 -23.5 10t-23.5 -10l-357 -357q-10 -10 -10 -23.5t10 -23t23 -9.5t23 9l358 358q10 10 10 23t-10 23zM464 509h-199q-15 0 -24 -9t-9 -24t9 -24t24 -9h199q15 0 24 9t9 24t-9 24t-24 9zM232 211q0 -15 9 -24t24 -9h464q15 0 24 9t9 24t-9 24t-24 9h-464q-15 0 -24 -9
t-9 -24z" />
    <glyph glyph-name="uniE63C" unicode="&#xe63c;" 
d="M224 170q124 -92 292 -92q77 0 155.5 28t131.5 73q70 -38 119.5 -113t50.5 -152h-921q9 87 59.5 154.5t112.5 101.5zM797 226q-57 -53 -131 -82t-155.5 -29t-155.5 29t-131 81q-105 -52 -164 -142t-59 -210h1022q0 120 -60.5 210t-165.5 143zM178 375v260l-11 -1
q45 98 137.5 158t205.5 60t205.5 -60t137.5 -158l-10 1v-260q54 0 93 38t39 92q0 36 -18.5 66t-49.5 48q-43 122 -151.5 199t-245 77t-245 -77t-152.5 -199q-31 -18 -49.5 -48t-18.5 -66q0 -54 39 -92t94 -38zM510 249q-100 0 -170 68.5t-70 166.5q0 96 72 165.5t168 69.5
q99 0 169 -69t70 -166.5t-70 -166t-169 -68.5zM510 765q-119 0 -203 -82.5t-84 -199.5t84 -199.5t203 -82.5t203.5 82.5t84.5 199.5t-84.5 199.5t-203.5 82.5z" />
    <glyph glyph-name="uniE63D" unicode="&#xe63d;" 
d="M77 416l422 422q5 5 13 5t13 -5l422 -422q6 -6 19 -6t19 6q19 19 0 38l-428 422q-19 20 -51 20t-51 -20l-422 -422q-5 -4 -5 -16t4.5 -21.5t20 -9.5t24.5 9zM33 224h108v-345h51v345h109v39h-268v-39zM499 269q-86 0 -134 -57q-51 -62 -51 -148q0 -79 51 -140
q51 -51 128 -51q86 0 134 57q51 62 51 147q0 80 -51 141q-34 51 -128 51zM595 -44q-38 -39 -96 -39q-60 0 -96 45q-38 39 -38 115q0 67 38 115q45 45 96 45q58 0 96 -38q32 -32 32 -115q0 -75 -32 -128zM960 237q-43 32 -96 32h-109v-384h51v147h51q60 0 103 32q38 39 38 90
q0 54 -38 83zM921 90q-19 -19 -70 -19h-45v153h51q90 0 90 -76q0 -32 -26 -58z" />
    <glyph glyph-name="uniE63E" unicode="&#xe63e;" 
d="M759 -126h-358q-18 0 -30.5 13t-12.5 30.5t12.5 30.5t30.5 13h358q6 0 11 3.5t7 8.5l154 358q16 35 -5 68t-59 33h-225q-14 0 -25.5 8.5t-15.5 22t1 27t16 21.5q30 20 46.5 100.5t-3.5 149.5q-16 50 -54 48h-13q-25 0 -44 -19q-18 -18 -18 -45v-59q0 -107 -74 -182
q-65 -67 -156 -75v-471q0 -35 -24 -59q-25 -25 -59 -25h-137q-33 0 -56 24t-23 57v471q0 37 25.5 63t61.5 26h189q70 0 119 50t49 121v59q0 63 43 107q44 44 105 44h10q47 3 83 -25.5t54 -82.5q18 -56 13.5 -132.5t-30.5 -137.5h142q39 0 74 -19t56.5 -52.5t24.5 -73.5
t-13 -77l-154 -356q-11 -29 -37 -47q-27 -19 -59 -19zM88 -39h129v467h-127z" />
    <glyph glyph-name="uniE63F" unicode="&#xe63f;" 
d="M935 480q-17 2 -30.5 -9t-15.5 -28q-33 -292 -209 -419q-81 -58 -166 -69q-15 2 -35 7t-55.5 18.5t-75.5 43t-75 70.5q-164 193 -137 587q127 12 219 48t148 74q133 -89 320 -116l-339 -366l-187 186q-12 12 -29 12t-29 -12.5t-12 -29.5t12 -29l217 -215q12 -12 29 -12h1
q18 0 30 13l423 458q4 4 7 10q1 1 1 3v1q1 1 2 3q1 6 1 13v1v3l-1 1v3l-1 1v3l-1 1l-1 2v1q-1 2 -2 3v1l-2 2l-1 1l-1 2q-1 0 -2 2v1h-1q-2 1 -3 3l-2 1q-1 1 -1.5 1t-2.5 1l-1 1q-1 0 -3 1h-1q0 1 -2 1l-2 1h-3h-1q-2 1 -4 1q-69 4 -134 18.5t-106 30.5t-77.5 35.5
t-47.5 27.5t-16 13q-12 10 -27.5 10t-26.5 -10q-5 -5 -16 -13t-46.5 -27.5t-76 -35.5t-106 -30.5t-136.5 -18.5h-1h-2q-1 -1 -2 -1h-2q-1 0 -3 -1h-1q-1 -1 -2 -1t-2 -0.5t-2 -1.5q-1 0 -1 -1q-1 0 -2 -1q-1 0 -1 -0.5t-1 -0.5l-2 -1q0 -1 -1 -1q0 -1 -1 -2q-1 0 -2 -1
l-1 -2l-1 -1q-1 -1 -1 -2q-1 -1 -2 -1v-2l-2 -2v-2h-1v-1q-1 -1 -1 -2v-2q-1 -1 -1 -2v-2q0 -1 -1 -3v-1q-40 -456 156 -684q41 -48 89 -82.5t91 -51t68 -23t45 -9.5h8h1h1h8q103 13 201 82q40 28 75.5 66t71.5 94.5t62.5 138.5t37.5 180q2 17 -8.5 30.5t-27.5 15.5z" />
    <glyph glyph-name="uniE640" unicode="&#xe640;" 
d="M1008 633l-296 -545q-13 -23 -22 -40q-3 -6 -5 -9.5t-7 -10.5t-9 -10.5t-11 -9t-13 -6.5t-16 -3t-19 2q-12 3 -22 10q-4 3 -8 7q-18 13 -44 31l-94 67q-2 2 -19 14q-8 -24 -30 -45q-72 -71 -95 -87t-51 -10q-19 5 -32.5 20t-16.5 35q-2 17 -29 155q-1 1 -1 2
q-10 65 26 99q1 1 3 2t3 2q-1 0 -5 0.5t-6 1.5q-32 7 -56 24l-86 60q-55 38 -45 94q2 11 7.5 22.5t23 27t44.5 22.5l828 210q29 8 54 2q41 -10 57 -46q18 -41 -8 -88zM231 210q28 -143 30 -159l1 -1q2 0 23.5 20t42.5 40l20 21q13 12 14 21t-5 16t-23 23l-4 3l-2 2
q-12 8 -22 19l-40 34q-7 5 -14 7q-13 3 -18.5 -10.5t-2.5 -35.5zM945 705q-10 2 -24 -1l-828 -211q-25 -7 -28 -22t19 -30l85 -60q15 -10 35 -15q43 -10 76 5l484 225q21 10 24.5 9t-13.5 -13q-3 -2 -6 -5l-405 -268q-18 -12 -21 -28.5t9 -31.5l17 -15l5 -3q48 -33 104 -73
l95 -67l52 -37v-1l31 56l296 545q9 16 7 27t-14 14z" />
    <glyph glyph-name="uniE641" unicode="&#xe641;" 
d="M173 722.5q0 17.5 12.5 30t29.5 12.5h764q18 0 30 -12.5t12 -30t-12.5 -30t-29.5 -12.5h-764q-17 0 -29.5 12.5t-12.5 30zM3 722.5q0 17.5 12.5 30t30 12.5t30 -12.5t12.5 -30t-12.5 -30t-30 -12.5t-30 12.5t-12.5 30zM173 383.5q0 17.5 12.5 30t29.5 12.5h764
q18 0 30 -12.5t12 -30t-12.5 -30t-29.5 -12.5h-764q-17 0 -29.5 12.5t-12.5 30zM3 383.5q0 17.5 12.5 30t30 12.5t30 -12.5t12.5 -30t-12.5 -30t-30 -12.5t-30 12.5t-12.5 30zM173 43.5q0 17.5 12.5 30t29.5 12.5h764q18 0 30 -12t12 -30t-12.5 -30.5t-29.5 -12.5h-764
q-17 0 -29.5 12.5t-12.5 30zM3 44q0 18 12.5 30t30 12t30 -12t12.5 -30t-12.5 -30.5t-30 -12.5t-30 12.5t-12.5 30.5z" />
    <glyph glyph-name="uniE642" unicode="&#xe642;" horiz-adv-x="1025" 
d="M760.5 -101q-41.5 0 -71 29.5t-29.5 71.5t29.5 71.5t71 29.5t71.5 -29.5t30 -71.5t-30 -71.5t-71.5 -29.5zM760.5 53q-21.5 0 -37 -15.5t-15.5 -37.5t15.5 -37.5t37 -15.5t37 15.5t15.5 37.5t-15.5 37.5t-37 15.5zM444 -101q-42 0 -71.5 29.5t-29.5 71.5t29.5 71.5
t71.5 29.5t71.5 -29.5t29.5 -71.5t-29.5 -71.5t-71.5 -29.5zM444 53q-22 0 -37.5 -15.5t-15.5 -37.5t15.5 -37.5t37.5 -15.5t37.5 15.5t15.5 37.5t-15.5 37.5t-37.5 15.5zM339 206l-12 5q-9 4 -12 11.5t-6 26.5q-3 17 -8 51q-9 56 -22 152q-27 189 -31 220l1 1l-2 5
q-36 102 -54 140q-41 -1 -191 1l1 48q183 -2 200 -1q10 1 17.5 -5t11.5 -12.5t10 -20.5q8 -19 22 -55q10 -28 23 -62q693 -3 711 -2q15 0 23 -13q2 -5 3 -8.5t-1 -18t-8.5 -38t-20 -68t-33.5 -109.5q-69 -211 -83 -232q-8 -12 -21 -12q-32 -1 -513 -1zM298 662
q44 -323 58 -405q406 0 486 1q19 47 67.5 195.5t62.5 206.5q-131 1 -674 2zM206 818h4h-4z" />
    <glyph glyph-name="uniE643" unicode="&#xe643;" 
d="M508 -70q-3 0 -36.5 45t-65.5 90l-33 45l-6 7h-289q-25 0 -42 9.5t-24 24.5t-9 25t-2 18v565q0 25 9.5 42t25 24t27 9.5t21.5 2.5h6v0h714h135q29 -6 45.5 -13.5t25.5 -25.5q5 -8 8.5 -18t3.5 -15v-5v-566q-1 -22 -10 -37.5t-20 -23t-21.5 -11.5t-17.5 -5h-8h-295l-7 -7z
M412 149l96 -148l97 141q21 33 45 33h276q12 0 25.5 10.5t13.5 27.5v0v521q0 13 -13 25q-5 9 -10 11t-16 2h-829q-18 0 -28.5 -10.5t-10.5 -21.5v-520q0 -23 11.5 -34t27.5 -11v0h90h167q24 0 36 -5.5t22 -20.5zM251 387v64h514v-64h-514zM251 515v65h514v-65h-514z" />
    <glyph glyph-name="uniE644" unicode="&#xe644;" 
d="M968.5 512q-10.5 0 -18 -7.5t-7.5 -17.5v-309l-421 -238v438v6l429 243q13 8 13 23t-14 21l-441 221q-12 6 -23 0l-441 -221q-19 -9 -13 -29q-1 -4 -1 -8v-471q0 -14 12 -21l441 -266h1h1v-1h1h1v-1h2q1 0 1 -0.5t1 -0.5q7 -1 14 1v0q1 0 1 0.5t1 0.5v0l2 1v0l471 266
q12 7 12 21v324q0 10 -7 17.5t-17.5 7.5zM472 -58l-391 236v428l392 -222q-1 -3 -1 -6v-436zM886 648l-389 -220l-388 220l388 194zM334 391l-147 88q-9 5 -19 2.5t-15.5 -11t-3 -18.5t11.5 -16l147 -88q9 -5 19 -2.5t15.5 11t3 18.5t-11.5 16z" />
    <glyph glyph-name="uniE645" unicode="&#xe645;" 
d="M1020 520l-211 319h-597l-211 -319q0 -46 19.5 -97.5t52.5 -85.5q-2 -4 -2 -9v-327q0 -29 27.5 -50.5t60.5 -21.5h220h263h220q33 0 60.5 21.5t27.5 50.5v327q0 5 -2 9q33 34 52.5 85.5t19.5 97.5zM897 1q0 -8 -11.5 -16t-23.5 -8h-703q-12 0 -23.5 8t-11.5 16v302
q17 -7 35 -7q77 0 126.5 32.5t49.5 95.5q0 -63 49 -95.5t126.5 -32.5t126.5 32.5t49 95.5q0 -63 49 -95.5t127 -32.5q18 0 35 7v-302zM862 344q-21 0 -39.5 3t-39 11t-32.5 25t-12 41q0 20 -15.5 34t-37.5 14t-37 -14t-15 -34q0 -25 -12.5 -42t-33 -24.5t-39 -10.5t-39 -3
t-39 3t-39 10.5t-32.5 24.5t-12 42q0 20 -15.5 34t-37.5 14t-37.5 -14t-15.5 -34q0 -24 -12 -41t-32.5 -25t-39 -11t-39.5 -3q-36 0 -68.5 53t-36.5 110l188 284h532h5l188 -284q-4 -57 -36.5 -110t-68.5 -53z" />
    <glyph glyph-name="uniE646" unicode="&#xe646;" 
d="M331 648q-52 0 -89 -30.5t-37 -73.5t37 -73.5t89 -30.5t89 30.5t37 73.5t-37 73.5t-89 30.5zM410 543.5q0 -23.5 -23 -40.5t-56 -17q-32 0 -55.5 17t-23.5 40.5t23.5 40.5t55.5 17q33 0 56 -17t23 -40.5zM1023 331v3v28q0 90 -39.5 171.5t-113.5 144.5q-73 63 -167 96
t-197 33q-224 0 -356 -81q-72 -45 -110 -112q-34 -60 -39 -135q-1 -3 0.5 -80.5t1.5 -79.5q0 -54 14 -86.5t45 -50.5q17 -10 42.5 -16t44 -8t55.5 -4q53 -4 84.5 -7.5t85 -18.5t98.5 -40q173 -97 299 -114q26 -3 50 -3q99 0 158 65q16 18 25.5 46t13.5 74t4.5 78.5t0.5 96.5
zM825 17q-19 0 -43 3q-117 17 -284 113q-39 22 -78.5 37t-82 23t-67.5 10.5t-68 5.5q-34 3 -50.5 4.5t-36.5 6t-32 11.5q-36 22 -36 94q20 -16 51 -25.5t54 -13t67 -8.5q57 -6 90 -10.5t86 -21t96 -43.5q176 -106 307 -106q112 0 174 76l2 2q-3 -44 -9.5 -68t-20.5 -42
q-40 -48 -119 -48zM798 148q-116 0 -279 96q-48 29 -106.5 46.5t-93.5 22.5t-94 11q-32 4 -50.5 6.5t-40 6.5t-33 10t-24 14.5t-18 21t-9 29.5t-3.5 39q0 154 127 234q120 75 331 75q128 0 236.5 -53.5t171.5 -146t63 -200.5q0 -103 -47 -158q-45 -54 -131 -54z" />
    <glyph glyph-name="uniE647" unicode="&#xe647;" 
d="M798.5 400q18.5 0 32 13.5t13.5 32t-13.5 32t-32 13.5t-32 -13.5t-13.5 -32t13.5 -32t32 -13.5zM1023 410q-2 43 -33 85.5t-114 100.5q-27 19 -56.5 33t-47.5 19.5t-49 14.5q-23 7 -35 11t-28.5 11.5t-28 17.5t-20.5 24l-1 2q-16 25 -26.5 40t-28.5 36.5t-36.5 32.5
t-36.5 11h-7q-34 -5 -54 -31q-17 -22 -23 -56q-8 -41 -3 -107q1 -8 1 -10q1 -21 -54 -51q-50 -29 -81 -32h-1q-10 0 -40 36q-19 22 -31.5 35t-37 28t-48.5 18q-5 1 -9 1q-36 0 -62 -28q-34 -35 -31 -100q2 -24 15 -46.5t24 -32.5t29 -24q9 -6 12 -9q-3 -2 -10 -7
q-15 -10 -24.5 -18.5t-23 -27.5t-19.5 -40q-10 -41 4 -83q15 -49 52 -69q21 -11 44 -11q65 0 130 79q22 27 46 27q14 0 30.5 -10.5t26 -20t25.5 -26.5l2 -2q18 -20 26.5 -39.5t8 -33.5t-1.5 -30v-2q0 -3 -1 -4q-8 -89 46 -105q9 -3 18 -3q24 0 55 17.5t50.5 33.5t53.5 45
q5 4 7 6q16 14 31.5 21t25 8t27.5 2q21 1 34.5 2.5t40 10.5t54.5 27q83 51 136 119q50 63 48 104zM544 116q-58 -45 -78 -45q-8 0 -13.5 9.5t-1.5 43.5q1 20 2 40.5t-9 46t-33 46.5q-4 5 -14 15q-21 21 -34.5 33.5t-37.5 27t-44 15.5h-4q-16 0 -33.5 -9.5t-28 -18.5
t-29.5 -28q-23 -23 -35 -32q-24 -18 -45 -18q-19 0 -32 14q-19 20 -18 55q2 48 67 91q34 22 35 40q0 16 -29 35q-4 2 -7 4q-1 1 -4 3q-26 16 -48 42q-23 29 -12 65q8 26 27 31q5 2 10 2q11 0 25 -9.5t23 -18.5t25 -27q18 -20 28 -30.5t27 -21t33 -10.5q3 0 7 1q50 6 111 42
q65 38 76 71q5 16 2 66q-4 51 1 77t26 30h3q6 0 14.5 -5.5t18.5 -18.5t17 -22t19 -27q21 -30 32.5 -45.5t31 -32.5t36.5 -20l8 -2q39 -7 58 -11.5t49.5 -17.5t66.5 -35q66 -40 98 -73q36 -37 37 -75q1 -20 -27 -56t-77 -79q-48 -42 -98 -60q-38 -14 -79 -14q-14 0 -30 2h-6
q-14 0 -28 -8t-22 -16.5t-22 -24.5q-22 -27 -35 -37z" />
    <glyph glyph-name="uniE648" unicode="&#xe648;" horiz-adv-x="1025" 
d="M30 177h962q9 0 14 1t10.5 8t5.5 21q0 15 -9.5 22.5t-20.5 7.5h-30q0 69 -23 132t-57 108t-75 79.5t-79 52t-66 19.5q-4 63 -44 109t-107 41q-67 -4 -109 -47.5t-41 -102.5q-36 -5 -75.5 -23.5t-79.5 -52.5t-72 -78t-52.5 -106t-21.5 -131h-30q-10 0 -20 -7.5t-10 -22.5
q0 -11 2.5 -18t8.5 -9t9 -2.5t10 -0.5zM511 718q32 0 59 -16.5t31 -43.5q-11 2 -27 2t-35 -1t-27.5 -1t-28 1t-35 1t-27.5 -2q4 27 31 43.5t59 16.5zM511 598q108 0 196.5 -45t141 -128t53.5 -188h-782q2 105 54.5 188t141 128t195.5 45zM962 57h-902q-11 0 -18 -2.5
t-9 -9.5t-2.5 -8.5t-0.5 -10.5v-4v-6q0 -2 0.5 -6t2 -5.5t3.5 -4t5.5 -3.5t8.5 -1h912q16 2 23.5 11t6.5 19q0 13 -10 22t-20 9zM403 483q-83 -15 -143 -84q-30 -34 -44 -66q-3 -8 0 -15.5t11 -10.5q4 -2 8 -2q13 0 18 12l6 12q4 8 18 27t30.5 35t44 31.5t58.5 21.5
q9 1 13.5 8t3 15t-8 13t-15.5 3z" />
    <glyph glyph-name="uniE649" unicode="&#xe649;" 
d="M946 23q-20 20 -46 40q10 29 18.5 63t16 88t-2.5 108.5t-37 95.5q34 10 66 22q12 4 12 18v162q0 9 -7.5 15t-16.5 3q-53 -15 -111 -25q-48 71 -107 137q-129 145 -219 146q-89 -1 -219 -146q-59 -66 -107 -137q-58 10 -111 25q-9 3 -16.5 -3t-7.5 -15v-162q0 -13 12 -18
q33 -12 66 -22q-27 -41 -36.5 -95.5t-2.5 -108.5t15.5 -88t18.5 -63q-26 -20 -46 -40q-63 -60 -47 -97q3 -7 10 -10t14 0q16 5 36 7t35.5 1t31.5 -4t22.5 -4.5t9.5 -2.5h1q172 -40 315 -40h12q143 0 315 40h1q3 1 9.5 2.5t22.5 4.5t31.5 4t35.5 -1t36 -7q7 -3 14 0t10 10
q16 37 -47 97zM512 857q32 0 73.5 -27t81.5 -69t71.5 -80.5t57.5 -75.5q-132 -21 -284 -21t-284 21q26 37 57.5 75.5t71.5 80.5t81.5 69t73.5 27zM918 -37q-49 1 -94 -13q-169 -38 -306 -38h-12q-137 0 -306 38q-45 14 -94 13q-21 -1 -20 -1q-13 3 18 33q26 25 54 45
q12 9 7 23q-4 9 -9.5 26t-15.5 61.5t-13 85t6 88.5t35 81q0 1 1 2q124 -31 291 -34q46 0 132 5.5t118 9.5q8 1 13 7.5t4 14.5t-7.5 13t-14.5 4q-20 -3 -69.5 -6.5t-85.5 -5.5t-40 -2q-236 -8 -421 58v123q187 -48 423 -48t423 48v-123q-27 -12 -109 -31q-8 -2 -12.5 -9
t-2.5 -14.5t8.5 -12t14.5 -2.5q7 2 21 5q45 -62 43 -158q-2 -42 -12 -90.5t-16.5 -67.5t-10.5 -28q-5 -14 7 -23q28 -20 54 -45q35 -34 13 -34q-3 0 -9 1q-5 1 -6 1z" />
    <glyph glyph-name="uniE64A" unicode="&#xe64a;" 
d="M874 746q-73 73 -166 111.5t-195.5 38.5t-196 -38.5t-166 -111t-111 -166t-38.5 -196t38.5 -195.5t111 -165.5t166 -111.5t196 -39t195.5 39t165.5 111.5t111 165.5t38.5 195.5t-38.5 196t-110.5 165.5zM942 550q-7 12 -22 19.5t-46 18.5q-17 6 -29 21t-18 28.5t-15 40.5
q-8 24 -13.5 37t-17 31t-25.5 29q130 -82 186 -225zM798 375q1 -19 2 -35.5t-8 -38.5t-29 -45q-12 -13 -26 -50q-8 -22 -13.5 -33.5t-16.5 -26t-28 -21t-41 -6.5q-7 8 -12 37q-4 24 -10 90q-8 111 -21 159q-25 93 -84 113q-26 8 -55 8q-14 0 -38 -2q-18 -2 -25 -2
q-8 0 -12.5 1t-13 10t-16.5 27q-10 30 -9 63t20.5 68.5t52.5 57.5q55 37 89 37q28 0 69 -22q39 -21 81 -21q8 0 22 1h16q18 0 31 -8q9 -7 17 -20t12 -23.5t11 -31.5q9 -24 14.5 -37.5t16.5 -32.5t26.5 -31.5t36.5 -20.5q23 -7 31 -11q-8 -9 -35 -33q-21 -19 -30 -27
q-21 -19 -25.5 -46t0.5 -47zM52 389q7 -2 18 -4q34 -7 48 -15q-3 -5 -12 -18q-28 -40 -22 -65q5 -21 -6 -55q-26 74 -26 153v1v3zM512 -75q-129 0 -237.5 66t-167.5 176q39 76 26 132q1 4 15 24q5 8 8 12.5t7.5 13t6 14.5t1 14t-4.5 16q-13 26 -80 41q-14 3 -31 6
q14 113 77.5 205.5t164 146t215.5 53.5q119 0 223 -58q-19 9 -43 9q-8 0 -19 -1q-13 -1 -19 -1q-29 0 -57 15q-53 28 -93 28q-49 0 -117 -45q-64 -42 -87 -117q-23 -73 4 -136q30 -69 89 -69q10 0 31 3q21 2 32 2q20 0 39 -6q33 -11 50 -77q12 -43 20 -150q7 -80 13 -110
q7 -26 17 -41q16 -24 41 -24q68 0 107 44q22 24 42 77q11 28 16 34q27 30 39.5 61.5t11 53t-2.5 44.5q-3 21 -1.5 31.5t9.5 17.5q13 12 29 27q32 28 42 39q21 23 17 44q27 -75 27 -155q0 -94 -36.5 -179t-98 -146.5t-146.5 -98t-179 -36.5z" />
    <glyph glyph-name="uniE64B" unicode="&#xe64b;" 
d="M513 399q138 0 254 31.5t184.5 89t68.5 127.5t-68.5 127.5t-184.5 89t-254.5 31.5t-254.5 -31.5t-184.5 -89t-68.5 -127.5t68.5 -127.5t184.5 -89t255 -31.5zM513 462q-121 0 -224.5 26.5t-162 69t-58.5 89.5t58.5 90t162 69t224 26t224 -26t162 -69t58.5 -90
t-58.5 -89.5t-162 -69t-223.5 -26.5zM995 467q25 -38 25 -80q0 -70 -68.5 -127t-184.5 -89t-254.5 -32t-254.5 32t-184.5 89t-68.5 127q0 42 25 80q24 -19 52 -36q-14 -22 -14 -44q0 -47 58.5 -89.5t162 -69t224 -26.5t224 26.5t162 69t58.5 89.5q0 22 -13 44q28 17 51 36z
M995 202q25 -38 25 -79q0 -71 -68.5 -128t-184.5 -88.5t-254.5 -31.5t-254.5 31.5t-184.5 88.5t-68.5 128q0 41 25 79q24 -19 52 -35q-14 -22 -14 -44q0 -48 58.5 -90.5t162 -68.5t224 -26t224 26t162 68.5t58.5 90.5q0 22 -13 44q28 16 51 35z" />
    <glyph glyph-name="uniE64C" unicode="&#xe64c;" 
d="M94 859h834q39 0 67 -28q28 -29 28 -68v-763q0 -40 -28 -68t-67 -28h-832q-39 0 -68 28q-28 28 -28 68v765q0 39 28 66l2 3q27 25 64 25v0zM928 791h-834q-10 0 -17 -7l-1 -1q-8 -7 -8 -18v-765q0 -11 8 -19v-1h1q7 -8 19 -8h832q11 0 19 8v0q8 8 8 20v763q0 11 -7 19
l-1 1q-8 8 -19 8zM171 586q-14 0 -24 10t-10 24t10 24t24 10h682q14 0 24 -10t10 -24t-10 -24t-24 -10h-682zM192 450h229q24 0 40.5 -16.5t16.5 -40.5v-228q0 -23 -16.5 -39.5t-40.5 -16.5h-228q-23 0 -39.5 16.5t-16.5 39.5v229q0 23 16 39q17 17 39 17zM410 381h-205
v-204h205v204zM648 383q-14 0 -24 10t-10 24t10 24t24 10h205q14 0 24 -10t10 -24t-10 -24t-24 -10h-205zM648 178q-14 0 -24 10t-10 24t10 24t24 10h205q14 0 24 -10t10 -24t-10 -24t-24 -10h-205z" />
    <glyph glyph-name="uniE64D" unicode="&#xe64d;" 
d="M148 387l371 -512l372 512h-182v509h-375v-509h-186z" />
    <glyph glyph-name="uniE64E" unicode="&#xe64e;" 
d="M891 384l-372 512l-371 -512h182v-509h374v509h187z" />
    <glyph glyph-name="uniE64F" unicode="&#xe64f;" 
d="M512 887q-103 0 -196 -40t-160.5 -107.5t-107.5 -160.5t-40 -196t40 -196t107.5 -160.5t160.5 -107.5t196 -40t196 40t160.5 107.5t107.5 160.5t40 196t-40 196t-107.5 160.5t-160.5 107.5t-196 40zM512 -49q-117 0 -217 57.5t-157.5 157.5t-57.5 217t57.5 217
t157.5 157.5t217 57.5t217 -57.5t157.5 -157.5t57.5 -217t-57.5 -217t-157.5 -157.5t-217 -57.5zM834 482l-223 33l-99 201l-99 -201l-223 -33l161 -157l-38 -221l199 104l199 -104l-38 221zM512 284l-123 -64l24 136l-99 97l137 20l61 124l61 -124l137 -20l-99 -97l24 -136
z" />
    <glyph glyph-name="uniE650" unicode="&#xe650;" 
d="M889 760h-755q-52 0 -89 -37t-37 -89v-503q0 -52 37 -89t89 -37h755q53 0 89.5 37t36.5 89v503q0 52 -36.5 89t-89.5 37zM931 173q0 -35 -24.5 -59.5t-59.5 -24.5h-671q-35 0 -59.5 24.5t-24.5 59.5v293h839v84h-839v42q0 35 24.5 59.5t59.5 24.5h671q35 0 59.5 -24.5
t24.5 -59.5v-419zM176 173h210v84h-210v-84z" />
    <glyph glyph-name="uniE651" unicode="&#xe651;" 
d="M955 444l-177 48l-183 -106l182 -105l178 47l22 -83l-94 -26l85 -48l-44 -76l-85 50l26 -95l-83 -22l-48 177l-182 106v-183l130 -129l-62 -61l-68 68v-126h-87v127l-69 -68l-61 60l130 128v184l-159 -92l-47 -177l-83 23l25 93l-109 -63l-44 76l110 63l-94 26l22 82
l176 -48l159 92l-159 92l-176 -48l-22 83l93 25l-109 63l44 75l110 -63l-25 94l82 23l47 -177l159 -92v211l-130 130l61 61l69 -69v98h87v-98l69 69l61 -61l-130 -130v-211l182 105l48 178l83 -22l-25 -94l85 48l43 -75l-85 -49l94 -25z" />
    <glyph glyph-name="uniE652" unicode="&#xe652;" 
d="M332 314h-145q-15 0 -25.5 11t-10.5 26t10.5 25.5t25.5 10.5h109v108q0 15 10.5 25.5t25.5 10.5t25.5 -10.5t10.5 -25.5v-144q0 -15 -10.5 -26t-25.5 -11zM727 212q-52 0 -92 -32.5t-51 -82.5h-140q-12 50 -52 82.5t-92 32.5q-61 0 -104.5 -43.5t-43.5 -105t43.5 -104.5
t104.5 -43q51 0 90 30.5t52 78.5h143q13 -48 52.5 -78.5t89.5 -30.5q61 0 104.5 43t43.5 104.5t-43.5 105t-104.5 43.5zM300 -12q-31 0 -53.5 22t-22.5 53.5t22.5 54t53.5 22.5t53.5 -22.5t22.5 -54t-22.5 -53.5t-53.5 -22zM727.5 -12q-31.5 0 -53.5 22.5t-22 53.5t22 53.5
t53.5 22.5t53.5 -22.5t22 -53.5t-22 -53.5t-53.5 -22.5zM910 856h-524q-37 0 -63.5 -26.5t-26.5 -63.5v-104l-220 -111l-4 -2q-64 -45 -64 -126v-364q0 -15 10.5 -25.5t25.5 -10.5t26 10.5t11 25.5v364q0 42 30 65l237 119l2 2l2 1q5 4 6 5q2 2 4 6q3 5 3 6q1 1 2 7
q0 1 0.5 2.5t0.5 2.5v127q0 7 5 12.5t13 5.5h524q15 0 25.5 -11t10.5 -26v-685q0 -15 10.5 -26t25.5 -11t25.5 11t10.5 26v685q0 45 -31.5 77t-76.5 32z" />
    <glyph glyph-name="uniE653" unicode="&#xe653;" 
d="M92 748h359q11 -1 17 -7.5t8.5 -21t3 -24t0 -30t-0.5 -25.5v-196q0 -8 0.5 -26t0.5 -27.5t-2 -22.5t-6.5 -20.5t-13 -11t-25 -4t-39.5 0.5t-28 1h-191q-7 0 -27 -0.5t-30 -0.5t-24 2.5t-21 9t-9 16.5v360q8 21 28 27v0zM141 667v-256h259v260h-258q-1 -1 -1 -4v0z
M574 748h360q23 -9 27 -32v-350q-5 -25 -25 -31q-11 -3 -26 -3t-35.5 1t-28.5 1h-185q-8 0 -29 -1t-37 -1t-26 3q-9 3 -14.5 11t-7 22t-2 24.5t0 30t0.5 26.5v184q0 8 -0.5 29t-0.5 31.5t2.5 24.5t9 21t17.5 9v0zM624 667v-256h259v260h-258q-2 -1 -1 -4v0zM259 592
q27 5 46 -10t20 -40q0 -31 -26 -46.5t-53 -2.5q-19 10 -25.5 32t4 42.5t34.5 24.5v0zM742 592q44 8 59 -29q13 -32 -9 -58q-18 -22 -50 -16q-26 4 -36 27.5t0 47t36 28.5v0zM449 -149h-356q-23 7 -29 29v358q7 21 24 26q11 3 26 3t35.5 -1t29.5 -1h184q8 0 28.5 1.5t36.5 1
t27 -3.5q9 -3 15 -10.5t8 -21.5t2 -24.5t-0.5 -30t-0.5 -26.5v-189q0 -7 0.5 -28t0 -30.5t-3 -23.5t-9.5 -20.5t-18 -8.5v0zM141 184v-255h259v259h-258q-1 0 -1 -4v0zM961 233v-100q-1 -8 -1 -53v-55h-257v58q-5 2 -38.5 1.5t-40.5 -0.5q-2 -19 -1.5 -115t-0.5 -118h-47
q-11 3 -18 10.5t-9.5 21.5t-2.5 24.5t0.5 30.5t0.5 29v184q0 8 -1 29t-0.5 37t3.5 26q1 5 4 9t9 6.5t10 4t13 2t13 0.5h15h15h175v-158h81q0 14 -0.5 79.5t1.5 78.5q20 1 37 0.5t28 -8.5t12 -24v0zM265 111q30 3 48.5 -20t7.5 -53q-10 -27 -39 -31.5t-50 15t-12.5 52.5
t45.5 37v0zM790 -149h-87v47q0 39 1 46h86v-93v0zM961 -56v-61q-5 -24 -29 -32h-61q0 9 -0.5 47.5t1.5 45.5h89v0zM961 -56z" />
    <glyph glyph-name="uniE654" unicode="&#xe654;" 
d="M944 420l-287 42q-1 0 -1 1l-128 259q0 1 -1 0l-128 -259q0 -1 -1 -1l-287 -42l207 -202q1 -1 1 -2l-49 -285v-1h1l256 135h1q0 31 14 52t33 21h66v67q0 19 22.5 33t53.5 14q25 0 45 -9zM831 100h-76v76q0 16 -11 27t-27 11t-27 -11t-11 -27v-76h-76q-15 0 -26.5 -11
t-11.5 -26.5t11.5 -27t26.5 -11.5h76v-75q0 -16 11 -27t27 -11t27 11t11 27v75h76q16 0 27 11.5t11 27t-11 26.5t-27 11z" />
    <glyph glyph-name="uniE655" unicode="&#xe655;" 
d="M903 244h-336v-336q0 -23 -16.5 -39t-39.5 -16t-39.5 16t-16.5 39v336h-336q-23 0 -39.5 16.5t-16.5 39.5t16.5 39.5t39.5 16.5h336v336q0 23 16.5 39.5t39.5 16.5t39.5 -16.5t16.5 -39.5v-336h336q23 0 39.5 -16.5t16.5 -39.5t-16.5 -39.5t-39.5 -16.5z" />
    <glyph glyph-name="uniE656" unicode="&#xe656;" 
d="M510 750q-91 0 -174 -35.5t-143 -95.5t-95.5 -143t-35.5 -174t35.5 -174t95.5 -143t143 -95.5t174 -35.5t174 35.5t143 95.5t95.5 143t35.5 174t-35.5 174t-95.5 143t-143 95.5t-174 35.5zM708 183q8 -8 8 -19.5t-8 -19.5l-40 -40q-8 -8 -19.5 -8t-19.5 8l-119 119
l-119 -119q-8 -8 -19.5 -8t-19.5 8l-40 40q-8 8 -8 19.5t8 19.5l119 119l-119 119q-8 8 -8 19.5t8 19.5l40 40q8 8 19.5 8t19.5 -8l119 -119l119 119q8 8 19.5 8t19.5 -8l40 -40q8 -8 8 -19.5t-8 -19.5l-119 -119z" />
    <glyph glyph-name="uniE657" unicode="&#xe657;" horiz-adv-x="1026" 
d="M401 -13q17 25 46.5 69t114.5 158t162 202q59 69 134 141t120 110l46 38l-35 76q-22 -12 -59 -33.5t-132 -85.5t-166 -123q-72 -61 -143.5 -135t-107.5 -117t-36 -45l-245 183l-100 -85z" />
    <glyph glyph-name="uniE658" unicode="&#xe658;" 
d="M864 428h-319v319h-66v-319h-319v-67h319v-319h66v319h319v67z" />
    <glyph glyph-name="uniE659" unicode="&#xe659;" 
d="M160 406h704v-66h-704v66z" />
    <glyph glyph-name="uniE65A" unicode="&#xe65a;" 
d="M364 6h-204v767h703v-268h58q44 0 70 -26v320q0 38 -29 67t-67 29h-767q-38 0 -67 -29t-29 -67v-831q0 -38 29 -67t67 -29h256q-26 38 -26 70v64h6zM288 581h447v-63h-447v63zM288 198h76v-64h-76v64zM288 390h76q0 25 26 64h-96v-64h-6zM288 326h76v-64h-76v64zM921 454
h-429q-28 0 -49 -21t-21 -50v-428q0 -29 21 -49.5t49 -20.5h429q28 0 49 20.5t21 49.5v428q0 29 -21 50t-49 21zM896 236l-189 -190l-36 -35q-7 -8 -17.5 -8t-18.5 8l-35 35l-95 95q-7 7 -7 17.5t7 18.5l36 35q7 8 17.5 8t17.5 -8l77 -77l172 172q7 8 17.5 8t18.5 -8l35 -35
q8 -8 8 -18.5t-8 -17.5z" />
    <glyph glyph-name="uniE65B" unicode="&#xe65b;" 
d="M698 895h-371q-19 0 -33 -13.5t-14 -32.5v-186q0 -19 14 -32.5t33 -13.5h371q19 0 33 13.5t14 32.5v186q0 19 -14 32.5t-33 13.5zM675 710q0 -11 -6.5 -17.5t-16.5 -6.5h-279q-10 0 -16.5 6.5t-6.5 17.5v92q0 11 6.5 17.5t16.5 6.5h279q10 0 16.5 -6.5t6.5 -17.5v-92z
M930 802h-139v-69h116q19 0 32.5 -14t13.5 -33v-696q0 -19 -13.5 -32.5t-32.5 -13.5h-789q-19 0 -32.5 13.5t-13.5 32.5v696q0 19 13.5 33t32.5 14h116v69h-139q-39 0 -66 -27t-27 -65v-743q0 -38 27 -65.5t66 -27.5h835q39 0 66 27.5t27 65.5v743q0 38 -27 65t-66 27z
M824 453q0 -15 -10.5 -25.5t-25.5 -10.5h-429q-14 0 -24.5 10.5t-10.5 25.5t10.5 25.5t24.5 10.5h429q15 0 25.5 -10.5t10.5 -25.5zM237 489q-15 0 -25.5 -10.5t-10.5 -25.5t10.5 -25.5t25.5 -10.5t25.5 10.5t10.5 25.5t-10.5 25.5t-25.5 10.5zM824 282q0 -14 -10.5 -24.5
t-25.5 -10.5h-429q-14 0 -24.5 10.5t-10.5 24.5q0 15 10.5 25.5t24.5 10.5h429q15 0 25.5 -10.5t10.5 -25.5zM237 318q-15 0 -25.5 -10.5t-10.5 -25.5t10.5 -25t25.5 -10t25.5 10t10.5 25t-10.5 25.5t-25.5 10.5zM824 111q0 -14 -10.5 -24.5t-25.5 -10.5h-429
q-14 0 -24.5 10.5t-10.5 24.5q0 15 10.5 25.5t24.5 10.5h429q15 0 25.5 -10.5t10.5 -25.5zM237 147q-15 0 -25.5 -10.5t-10.5 -25t10.5 -25t25.5 -10.5t25.5 10.5t10.5 25t-10.5 25t-25.5 10.5z" />
    <glyph glyph-name="uniE65C" unicode="&#xe65c;" 
d="M512 894q-104 0 -198.5 -40.5t-162.5 -108.5t-108.5 -162.5t-40.5 -198.5t40.5 -198.5t108.5 -162.5t162.5 -108.5t198.5 -40.5t198.5 40.5t162.5 108.5t108.5 162.5t40.5 198.5t-40.5 198.5t-108.5 162.5t-162.5 108.5t-198.5 40.5zM738 259q-16 -44 -46 -83
q2 -1 5.5 -2.5t12.5 -7t15.5 -12.5t11.5 -18.5t4 -24.5q0 -2 -0.5 -5.5t-6.5 -12.5t-16.5 -15.5t-34 -11t-55.5 -3.5q-9 0 -23.5 2t-43 12.5t-38.5 25.5h-22q-10 -15 -36.5 -25t-47.5 -13l-21 -2q-32 -1 -55.5 3.5t-34 11t-16.5 15.5t-6.5 12.5t-0.5 5.5q-2 21 10.5 37
t25.5 22l13 6q-13 17 -24.5 38t-16.5 33l-5 12q-53 -86 -63 -19q-1 10 -1 36q6 34 23.5 66.5t31.5 47.5l15 15q-4 32 1.5 52.5t12.5 26.5l7 5q1 45 13 81t28.5 58t38.5 38t40.5 23t38.5 11t27.5 4.5t12.5 -0.5q5 1 12.5 0.5t27.5 -4.5t38.5 -11t40.5 -23t38.5 -38t28.5 -58
t13 -81q1 -1 3 -2.5t7 -7t7.5 -14.5t5 -24t-1.5 -36q7 -6 16.5 -16.5t28.5 -44.5t25 -68q1 0 1 -7t-1 -16.5t-2.5 -19.5t-6 -15.5t-11.5 -5.5t-18 12t-26 35z" />
    <glyph glyph-name="uniE65D" unicode="&#xe65d;" 
d="M642 307q14 -12 0 -24l-309 -271q-7 -6 -7.5 -14.5t5 -15.5t14.5 -7.5t16 5.5l309 271q21 18 21 44t-20 44l-310 281q-7 6 -15.5 5.5t-14.5 -7t-5.5 -15.5t6.5 -15z" />
    <glyph glyph-name="uniE65E" unicode="&#xe65e;" 
d="M382 377q-14 12 0 24l309 271q7 6 7.5 14.5t-5 15.5t-14.5 7.5t-16 -5.5l-309 -271q-21 -18 -21 -44t20 -44l310 -281q7 -6 15.5 -5.5t14.5 7t5.5 15.5t-6.5 15z" />
    <glyph glyph-name="uniE65F" unicode="&#xe65f;" 
d="M510 425q12 14 25 0l270 -310q6 -6 15 -7t15.5 5t7 15t-5.5 15l-270 310q-18 20 -44 20.5t-45 -20.5l-280 -309q-6 -7 -6 -16t7 -14.5t15.5 -5.5t14.5 7z" />
    <glyph glyph-name="uniE660" unicode="&#xe660;" 
d="M245 351q-13 14 -13 33t13.5 32.5t32.5 13.5t33 -13l153 -153l248 246q13 14 32.5 14t33 -13.5t13 -32.5t-14.5 -32q-273 -274 -278 -279q-14 -14 -35 -14q-18 0 -33 15zM154 156v-4q0 -19 -13.5 -32.5t-32.5 -13.5q-26 0 -44 33q-63 115 -63 245q0 104 40.5 198.5
t108.5 162.5t162.5 108.5t198 40.5t198 -40.5t163 -108.5t109 -162.5t40.5 -198.5t-40.5 -198t-109 -162.5t-162.5 -109t-198 -40.5q-160 0 -292 93q-33 21 -35 45q-1 18 9 32q6 8 17.5 13t20.5 5q12 0 34 -15q110 -80 245 -80q114 0 210 56t152 152t56 209.5t-56 210
t-152 152.5t-209.5 56t-210 -56t-152.5 -152.5t-56 -209.5q0 -93 41 -178z" />
    <glyph glyph-name="uniE661" unicode="&#xe661;" 
d="M512 896q-104 0 -199 -40.5t-163.5 -109t-109 -163.5t-40.5 -199t40.5 -199t109 -163.5t163.5 -109t199 -40.5t199 40.5t163.5 109t109 163.5t40.5 199t-40.5 199t-109 163.5t-163.5 109t-199 40.5zM634 685q39 -17 72 -44q15 -11 27 -23q29 -30 50 -66l9 -18l-158 -160
v311zM477 708q18 2 35 2q41 0 81 -11q11 -3 19 -6v-226q-8 11 -216 220q39 16 81 21zM266 589q12 15 24 27q29 29 65 50q8 5 17 10l158 -160h-307q17 39 43 73zM201 355q-2 19 -2 36q0 42 10 82q3 11 6 20h223q-3 -3 -57.5 -58t-107 -108.5t-51.5 -53.5q-16 39 -21 82z
M317 142q-14 11 -26 23q-30 30 -50 66q-6 10 -10 18l158 160q-2 -9 0 -311q-39 17 -72 44zM547 74q-18 -2 -36 -2q-41 0 -81 11q-9 2 -19 6v226q1 -2 14 -15t32 -32.5t42 -42.5t45.5 -46t41.5 -42l30 -31l12 -11q-39 -16 -81 -21zM756 192q-12 -15 -24 -27q-29 -30 -64 -51
q-9 -5 -18 -9l-158 160h307q-17 -40 -43 -73zM814 308q-3 -10 -6 -19h-223q4 2 58 57t107 109l52 54q16 -40 21 -83q2 -18 2 -36q0 -41 -11 -82z" />
    <glyph glyph-name="uniE662" unicode="&#xe662;" 
d="M440.5 414.5q-74.5 -7.5 -124 -47t-43.5 -88.5q5 -49 61 -78.5t130.5 -22t124 47.5t43.5 88q-5 49 -61 78.5t-130.5 22zM528 261q-15 -35 -53 -51t-75 -4q-36 11 -49.5 42t2.5 63q15 32 50.5 47.5t70.5 6.5q37 -10 52.5 -40t1.5 -64zM427 297q-11 4 -24 0t-21 -15
q-7 -13 -4 -24.5t14 -16.5q12 -6 25.5 -1.5t20.5 16.5t3.5 23.5t-14.5 17.5zM464 311q-11 5 -16 -6q-6 -10 5 -15q11 -4 18 7q4 10 -7 14zM512 896q-212 0 -362 -150t-150 -362t150 -362t362 -150t362 150t150 362t-150 362t-362 150zM456 111q-72 0 -136.5 21t-107 63.5
t-42.5 96.5q0 90 102 191q64 64 129 89.5t94 -2.5q25 -25 7 -79q-3 -7 1.5 -9t9.5 0l6 2q52 23 93 23t59 -24q17 -26 0 -68q-3 -10 -1 -12t12 -4q35 -12 59 -34.5t24 -58.5q-1 -33 -23.5 -67.5t-61.5 -63t-98.5 -46.5t-125.5 -18zM711 469q7 22 -8 42q-19 19 -41 13
q-9 -2 -16.5 3t-10.5 14q-2 9 3.5 16.5t13.5 9.5q51 10 83 -26q34 -39 18 -86q-3 -9 -11 -13t-17 -1q-8 2 -12.5 10.5t-1.5 17.5zM842 427q-3 -11 -13 -15.5t-19 -1.5q-11 3 -15.5 12.5t-1.5 19.5q11 31 4 65t-31 60t-56.5 36.5t-65.5 3.5q-11 -3 -20 3t-11 16q-2 11 3.5 20
t16.5 11q46 10 92 -4.5t79 -50.5t42.5 -84t-4.5 -91z" />
    <glyph glyph-name="uniE663" unicode="&#xe663;" 
d="M496 491q15 0 26 10.5t11 25t-11 25t-26 10.5t-25.5 -10.5t-10.5 -25t10.5 -25t25.5 -10.5zM327.5 566q-14.5 0 -24.5 -10t-10 -23.5t10 -23.5t24.5 -10t24.5 10t10 23.5t-10 23.5t-24.5 10zM576 391q-13 0 -22 -9t-9 -21.5t9 -21t22 -8.5t22 8.5t9 21t-9 21.5t-22 9z
M731 391q-13 0 -22 -9t-9 -21.5t9 -21t22 -8.5t22 8.5t9 21t-9 21.5t-22 9zM512 896q-139 0 -257 -68.5t-186.5 -186.5t-68.5 -257t68.5 -257t186.5 -186.5t257 -68.5t257 68.5t186.5 186.5t68.5 257t-68.5 257t-186.5 186.5t-257 68.5zM413 255q-40 0 -78 10l-4 1l-89 -45
l23 75q-1 1 -2 1q-45 29 -71 72t-26 92q0 86 72.5 146.5t174.5 60.5q92 0 161.5 -50t83.5 -125h-11q-93 0 -159 -55t-66 -134q0 -24 8 -49h-17zM776 164l-2 -1l20 -63l-75 39q-3 -1 -4 -1q-32 -9 -66 -9q-87 0 -148 51t-61 123.5t61 123.5t147.5 51t148 -51t61.5 -124
q0 -41 -22 -77.5t-60 -61.5z" />
    <glyph glyph-name="uniE664" unicode="&#xe664;" 
d="M723 229v-1v-1l1 -1l13 -87q0 -4 2 -15t2 -16q-7 -8 -14 -8q-2 0 -7.5 4t-6.5 4q-7 4 -36 22.5t-45 28.5q-14 8 -94 59l-4 2q-3 2 -5.5 3.5t-3.5 2.5t-3 2t-3 1l-94 -59q-82 -52 -101 -62q-9 -7 -13 -8q-14 0 -15 7t4 37q24 215 24 223l-82 73q-2 2 -18.5 17.5
t-22.5 19.5l-33 24q-8 6 -10 9h244q4 8 16.5 29.5t13.5 24.5q6 10 14.5 30t12.5 28q3 5 7.5 15.5t6.5 13.5l33 72q6 13 7 13.5t16 0.5l73 -143q2 -5 7 -14.5t7 -14.5q11 -18 15 -28q1 -2 7.5 -12t8.5 -15h56h153h5h5h2v-2q0 -1 -2 -3.5t-4 -3.5l-4 -3l-3 -2l-49 -40
q-5 -4 -15.5 -13.5t-15.5 -13.5q-6 -4 -23 -19.5t-24 -21.5l-16 -13q-1 -2 -3.5 -3.5t-3.5 -2.5t-2 -2.5t-1 -3.5q1 -4 1 -6q20 -120 20 -128zM112 521q3 2 10 0q-4 0 -6 -1q-2 0 -4 1zM12 407v-46q0 -2 1 -13.5t1 -14.5q4 -38 14 -77q26 -107 101 -201l14 -16q3 -3 8 -8.5
t7 -7.5q127 -129 304 -148q28 -2 29 -2h46q1 0 28 2q2 0 26 4q68 10 137 42q76 36 141 101q126 131 144 310l3 29v46q-1 2 -1.5 7t-0.5 11v8q-3 24 -3 25q-9 64 -35 127q-13 31 -37 72q-9 14 -22 33l-13 15q-7 9 -11 14l-26 29q-34 36 -90 72q-46 30 -110 52q-37 11 -41 11
q-7 1 -21 4t-22 4q-3 1 -14 2t-21 2t-11 1h-46q-1 0 -29 -3q-177 -18 -304 -147q-61 -62 -98 -142t-46 -169q0 -2 -1 -14t-1 -14zM576 453q-3 -3 -61 -51q-36 -30 -62 -51q-10 -9 -33 -28t-28 -23l-46 -39q-2 -1 -5.5 -3.5t-6.5 -5t-4 -4.5h94h233q43 0 46 1l-219 48
q1 2 24 23t50.5 46t31.5 29q1 2 5.5 6t7.5 6l93 86h-349zM112 521q2 -1 4 -1q2 1 6 1q-7 2 -10 0z" />
    <glyph glyph-name="uniE665" unicode="&#xe665;" 
d="M455 299h-40q-2 -1 -4.5 -1.5t-11 -4t-15 -8.5t-14 -15.5t-12.5 -24.5q-4 -30 7 -57q2 -4 5.5 -10t16 -14t27.5 -8h70v189l-29 1v-47zM455 185h-30q-3 0 -7 1t-11.5 8.5t-10.5 18.5q-4 13 2 31q9 26 24 26h33v-85zM597 185h-45q-12 2 -12 12v102h-28v-113q0 -3 1.5 -8
t10.5 -13.5t25 -8.5h77v143h-29v-114zM512 896q-104 0 -199 -40.5t-163.5 -109t-109 -163.5t-40.5 -199t40.5 -199t109 -163.5t163.5 -109t199 -40.5t199 40.5t163.5 109t109 163.5t40.5 199t-40.5 199t-109 163.5t-163.5 109t-199 40.5zM610 660q28 -3 45 -30t13.5 -62.5
t-26 -59t-50.5 -20.5t-45 30.5t-13.5 63t26 58.5t50.5 20zM435 663.5q28 1.5 49.5 -23t23 -60t-16.5 -62t-46 -28t-49.5 23t-23 60t16.5 62t46 28zM247 436.5q-2 35.5 16.5 62t46.5 28t49 -23t23 -60t-16.5 -62t-46.5 -28t-49 23t-23 60zM719 148.5q-9 -22.5 -28.5 -34.5
t-40.5 -13.5t-40.5 0.5t-32.5 5l-12 4q-6 2 -14 3.5t-34.5 4t-48.5 -4.5q-23 -5 -47 -7t-37 -1l-13 1h-6q-4 0 -15.5 4t-21.5 11.5t-20 23.5t-15 37q-3 25 0 43t14.5 34.5t21.5 26t20 17t11 8.5t14 12.5t29.5 29.5t28.5 38q10 17 28 29t40 16t46.5 -9t43.5 -44
q18 -26 45.5 -54.5t46.5 -43.5l18 -15l6 -6q3 -3 10 -14.5t11 -24t2.5 -33.5t-10.5 -43.5zM701.5 338q-27.5 3 -45 30t-13.5 63t26 59t50 20t45 -30t13.5 -63t-26 -59t-50 -20zM597 185h-45q-12 2 -12 12v102h-28v-113q0 -3 1.5 -8t10.5 -13.5t25 -8.5h77v143h-29v-114z
M455 346v-47h-40q-2 -1 -4.5 -1.5t-11 -4t-15 -8.5t-14 -15.5t-12.5 -24.5q-4 -30 7 -57q2 -4 5.5 -10t16 -14t27.5 -8h70v189zM455 185h-30q-3 0 -7 1t-11.5 8.5t-10.5 18.5q-4 13 2 31q9 26 24 26h33v-85z" />
    <glyph glyph-name="uniE666" unicode="&#xe666;" 
d="M927 270l-380 382q-13 13 -31 13l-2 1h-2q-9 0 -17 -4q-9 -3 -15 -10l-343 -342q-12 -12 -12 -30t12 -30t29.5 -12t30.5 12l273 272v-550q0 -18 12 -30.5t30 -12.5t30 12.5t12 30.5v552l313 -314q12 -13 29.5 -13t30 12.5t12.5 30t-12 30.5v0zM978 750h-932
q-17 0 -29.5 12.5t-12.5 30t12.5 30t29.5 12.5h932q17 0 29.5 -12.5t12.5 -30t-12.5 -30t-29.5 -12.5v0z" />
    <glyph glyph-name="uniE667" unicode="&#xe667;" 
d="M1017 521q0 101 -50 187t-136 136t-187 50q-100 0 -184.5 -49t-135.5 -131q-133 -9 -226 -107t-93 -233q0 -130 85.5 -226t212.5 -112v-119q0 -14 7.5 -25.5t20.5 -15.5q8 -3 15 -3q20 0 34 15l215 252q3 3 5 7v-133q0 -13 8 -24.5t21 -16.5q7 -2 15 -2q20 0 33 15
l239 279q1 1 1.5 2t0.5 2q99 107 99 252zM643.5 807q118.5 0 202.5 -84t84 -202t-84 -202t-202.5 -84t-202 84t-83.5 202t83.5 202t202 84zM93 374q0 87 54 155.5t137 89.5q-14 -49 -14 -98q0 -116 65 -210t169 -136q-69 -55 -158 -55q-105 0 -179 74.5t-74 179.5zM572 540
h144q18 0 30.5 12.5t12.5 31t-12.5 31t-30.5 12.5h-144q-18 0 -31 -12.5t-13 -31t13 -31t31 -12.5zM572 390h144q18 0 30.5 13t12.5 31t-12.5 31t-30.5 13h-144q-18 0 -31 -13t-13 -31t13 -31t31 -13z" />
    <glyph glyph-name="uniE668" unicode="&#xe668;" 
d="M5 -35h1015v-46h-1015v46zM189 299v-196h196zM940 658l-196 196l-522 -522l196 -196z" />
    <glyph glyph-name="uniE669" unicode="&#xe669;" 
d="M409 709l-86 176q-4 10 -14 10h-231q-10 0 -10 -10v-22q0 -10 10 -10h204q10 0 14 -10l65 -134h-60v-1h-94q-19 0 -24.5 -11t6.5 -26l351 -476l-5 -278h-101v-41h253v41h-111l4 278l366 476q12 16 6.5 26.5t-25.5 10.5h-394v1h-124zM877 662h6l-70 -86l-250 -332
l-314 418h62h198h368z" />
    <glyph glyph-name="uniE66A" unicode="&#xe66a;" 
d="M964 542q-36 0 -36 -19v-537q0 -40 -27 -40h-794q-13 0 -26.5 13t-13.5 27v795q0 11 13 18.5t27 7.5h539q16 0 33 11.5t17 25.5t-16.5 23.5t-33.5 9.5h-606q-15 -3 -27 -11t-12 -19v-927q0 -14 13 -27t26 -13h927q27 0 27 40v603q0 11 -7 15t-23 4zM1014 883
q-10 10 -23.5 10t-23.5 -10l-357 -357q-10 -10 -10 -23.5t10 -23t23 -9.5t23 9l358 358q10 10 10 23t-10 23zM464 509h-199q-15 0 -24 -9t-9 -24t9 -24t24 -9h199q15 0 24 9t9 24t-9 24t-24 9zM232 211q0 -15 9 -24t24 -9h464q15 0 24 9t9 24t-9 24t-24 9h-464q-15 0 -24 -9
t-9 -24z" />
    <glyph glyph-name="uniE66B" unicode="&#xe66b;" 
d="M224 170q124 -92 292 -92q77 0 155.5 28t131.5 73q70 -38 119.5 -113t50.5 -152h-921q9 87 59.5 154.5t112.5 101.5zM797 226q-57 -53 -131 -82t-155.5 -29t-155.5 29t-131 81q-105 -52 -164 -142t-59 -210h1022q0 120 -60.5 210t-165.5 143zM178 375v260l-11 -1
q45 98 137.5 158t205.5 60t205.5 -60t137.5 -158l-10 1v-260q54 0 93 38t39 92q0 36 -18.5 66t-49.5 48q-43 122 -151.5 199t-245 77t-245 -77t-152.5 -199q-31 -18 -49.5 -48t-18.5 -66q0 -54 39 -92t94 -38zM510 249q-100 0 -170 68.5t-70 166.5q0 96 72 165.5t168 69.5
q99 0 169 -69t70 -166.5t-70 -166t-169 -68.5zM510 765q-119 0 -203 -82.5t-84 -199.5t84 -199.5t203 -82.5t203.5 82.5t84.5 199.5t-84.5 199.5t-203.5 82.5z" />
    <glyph glyph-name="uniE66C" unicode="&#xe66c;" 
d="M77 416l422 422q5 5 13 5t13 -5l422 -422q6 -6 19 -6t19 6q19 19 0 38l-428 422q-19 20 -51 20t-51 -20l-422 -422q-5 -4 -5 -16t4.5 -21.5t20 -9.5t24.5 9zM33 224h108v-345h51v345h109v39h-268v-39zM499 269q-86 0 -134 -57q-51 -62 -51 -148q0 -79 51 -140
q51 -51 128 -51q86 0 134 57q51 62 51 147q0 80 -51 141q-34 51 -128 51zM595 -44q-38 -39 -96 -39q-60 0 -96 45q-38 39 -38 115q0 67 38 115q45 45 96 45q58 0 96 -38q32 -32 32 -115q0 -75 -32 -128zM960 237q-43 32 -96 32h-109v-384h51v147h51q60 0 103 32q38 39 38 90
q0 54 -38 83zM921 90q-19 -19 -70 -19h-45v153h51q90 0 90 -76q0 -32 -26 -58z" />
    <glyph glyph-name="uniE66D" unicode="&#xe66d;" 
d="M993 409l-416 416q-29 29 -69 29q-41 0 -69 -29l-415 -416q-9 -8 -9 -22q0 -12 9 -22q10 -9 22 -9q13 0 22 9l35 35v-310q0 -31 14.5 -64t39 -57t57.5 -38.5t64 -14.5h68h326h68q56 0 110 53q42 42 42 121v332l58 -57q9 -9 22 -9q11 0 22 9q9 9 9 22q-1 13 -10 22z
M610 -23h-202v245q0 41 29.5 71t71.5 30q41 0 71 -30t30 -71v-245zM509 385q-68 0 -115.5 -48t-47.5 -115v-245h-68q-19 0 -40.5 10t-37.5 26t-25.5 37t-9.5 40v364q0 3 -1 8l319 319q10 11 24.5 11t24.5 -11l307 -305q-9 -9 -9 -22v-364q0 -53 -24 -77q-35 -36 -66 -36h-68
v245q0 67 -47.5 115t-115.5 48z" />
    <glyph glyph-name="uniE66E" unicode="&#xe66e;" 
d="M715 218q-50 0 -89 -31.5t-51 -80.5h-136q-11 49 -50 80.5t-89 31.5q-60 0 -102 -42.5t-42 -101.5q0 -60 42 -102t102 -42q49 0 87 30t51 76h139q12 -46 50.5 -76t87.5 -30q60 0 102 42.5t42 101.5t-42 101.5t-102 42.5zM300 0q-31 0 -52.5 21.5t-21.5 52t21.5 52
t52.5 21.5q30 0 51.5 -21.5t21.5 -51.5q0 -31 -21.5 -52.5t-51.5 -21.5zM715 0q-30 0 -51.5 21.5t-21.5 52t21.5 52t52 21.5t52 -21.5t21.5 -51.5q0 -31 -21.5 -52.5t-52.5 -21.5zM154 352.5q0 14.5 10.5 25t24.5 10.5h106v105q0 15 10.5 25t25 10t25 -10t10.5 -25v-141
q0 -14 -10.5 -24.5t-25.5 -10.5h-141q-14 0 -24.5 10.5t-10.5 25zM998 71q0 -14 -10 -24.5t-25 -10.5t-25 10.5t-10 24.5v668q0 14 -10.5 25t-25.5 11h-510q-7 0 -12 -5t-5 -13v-123q0 -1 -1 -3v-2q-1 -7 -2 -7q-2 -5 -3 -6q0 -1 -1.5 -3t-2.5 -3t-3 -2.5t-3 -1.5l-2 -2
l-2 -2l-230 -116q-29 -22 -29 -64v-353q0 -15 -10.5 -25.5t-25 -10.5t-25 10.5t-10.5 25.5v354q0 80 62 122q2 2 4 3l214 108v101q0 37 26 62.5t62 25.5h510q44 0 75 -31t31 -75z" />
    <glyph glyph-name="uniE66F" unicode="&#xe66f;" 
d="M986 718q0 -20 -14 -34t-34 -14h-30v-152v-162v-361q0 -32 -22.5 -54t-53.5 -22h-643q-31 0 -53.5 22.5t-22.5 53.5v361v162v152h-30q-20 0 -34 14t-14 34v79q0 19 14 33t34 14h855q20 0 34 -14t14 -34v-78zM90 790h841v-66h-841v66zM167 518v-162v-361q0 -9 6.5 -15.5
t15.5 -6.5h642q9 0 15.5 6.5t6.5 15.5v361v162v152h-686v-152zM305 383h410v-54h-410v54z" />
    <glyph glyph-name="uniE670" unicode="&#xe670;" 
d="M596 720q-5 11 -16.5 15.5t-22.5 -0.5t-15.5 -16t0.5 -23q2 -6 7.5 -16.5t22.5 -33t37.5 -40t54 -31.5t71.5 -14q9 0 13 1q13 1 21 10t7 21t-10 20t-21 8q-29 -2 -55 7.5t-42 23t-28.5 30t-17.5 25t-6 13.5zM763 717.5q0 22.5 -16 38t-38 15.5t-37.5 -15.5t-15.5 -37.5
t15.5 -38t37.5 -16t38 15.5t16 38zM813 809q4 -3 10 -11t16 -35t13 -59t-7.5 -84.5t-36.5 -109.5q-6 -11 -1.5 -22.5t15.5 -16.5t22.5 -1t15.5 15q23 50 35 97t14.5 81t-3 67t-12 51.5t-17.5 37.5t-14.5 23t-8.5 9q-17 17 -55 30t-85 12q-153 -3 -290 -148q-49 -49 -88 -102
t-62.5 -97t-39.5 -90t-23 -78t-10 -63.5t-2.5 -44.5t1.5 -23l-1 -31q-108 -29 -124 -87q-13 -49 40 -96q109 -98 175 -137q30 -21 60 -21q19 0 34 9q63 33 56 188q1 11 -7.5 19.5t-20.5 7.5t-20.5 -10t-7.5 -21q2 -50 -3.5 -83t-11 -40t-10.5 -10q-7 -4 -17.5 -0.5
t-16.5 8.5l-2 2l-1 1q-1 0 -3 1.5t-6.5 4t-11 6.5t-15 10.5t-18.5 13.5t-23 17t-26.5 21t-30 25.5t-33.5 29.5q-27 24 -23 37q4 15 36.5 29.5t65.5 21.5l24 5l1 81v2v1q-1 7 -1 17t2.5 38.5t8.5 57t21 71t36.5 83t57.5 90t83 95.5q120 127 248 130q37 0 64 -8.5t34 -16.5z
M946 101l-53 31l46 26q10 6 4.5 15.5t-15.5 4.5l-57 -33l-112 65l112 64l57 -32q3 -2 6 -2q6 0 9 6q6 9 -4 15l-46 26l53 31q7 4 9 11t-2 13.5t-11.5 8.5t-13.5 -1l-53 -31v53q0 4 -3.5 7.5t-8 3.5t-7.5 -3t-3 -8v-66l-113 -65v130l57 33q10 6 4.5 15.5t-15.5 3.5l-46 -26
v61q0 8 -5.5 13t-13 5t-13 -5t-5.5 -13v-61l-46 26q-9 6 -14.5 -3.5t3.5 -15.5l57 -33v-129l-112 64v66q0 5 -3 8t-8 3t-8 -3t-3 -8v-53l-53 31q-7 4 -14.5 2t-11 -8.5t-1.5 -14t8 -11.5l53 -31l-46 -26q-9 -6 -4 -15q4 -6 10 -6q3 0 6 2l56 33l113 -65l-112 -65l-57 33
q-10 5 -15.5 -4.5t3.5 -15.5l46 -26l-53 -31q-6 -4 -8 -11t2 -14q5 -9 16 -9q5 0 9 2l53 31v-53q0 -5 3 -8t8 -3t8 3t3 8v66l113 65v-130l-57 -33q-10 -5 -4 -15q3 -6 9 -6q3 0 6 2l46 26v-61q0 -7 5 -12.5t13 -5.5t13 5.5t5 12.5v61l46 -26q3 -2 6 -2q6 0 9 6q6 10 -4 15
l-57 33v130l113 -65v-66q0 -5 3 -8t7.5 -3t8 3t3.5 8v53l53 -31q4 -2 9 -2q11 0 16 9q4 7 2 14t-9 11z" />
    <glyph glyph-name="uniE671" unicode="&#xe671;" 
d="M413 81l-114 -71l25 124l330 591l-94 56l-346 -634v-275l265 116l361 625l-98 59zM630 896l-43 -79l265 -159l44 79z" />
    <glyph glyph-name="uniE672" unicode="&#xe672;" 
d="M505 684q-115 0 -187.5 -68.5t-72.5 -182.5q0 -46 27 -116.5t65 -138t76.5 -127.5t65 -98t26.5 -37q11 14 28.5 39t62.5 94.5t79 131.5t62 134t28 118q0 114 -71 182.5t-189 68.5zM606 463q0 -42 -29 -71.5t-70.5 -29.5t-70.5 29.5t-29 71.5q0 38 24.5 66.5t61.5 33.5
q9 2 19 2q39 0 66.5 -27.5t27.5 -66.5v-1v-1v-6z" />
    <glyph glyph-name="uniE673" unicode="&#xe673;" 
d="M903 266q-9 47 -31 91q-5 11 -16.5 15t-21.5 -1q-11 -6 -15 -17.5t1 -21.5q29 -60 31 -123.5t-24 -112.5q-20 -37 -72 -50q-62 -16 -147 4t-137 56q-25 18 -51.5 29t-58 15.5t-50.5 5.5t-55 2q-69 2 -95 6q-58 13 -81 53q-29 52 -2 148q31 64 105 107.5t162 59t173 4.5
q12 -1 21.5 6.5t11 19.5t-6 21.5t-19.5 11.5q-95 12 -194 -5.5t-184.5 -70t-122.5 -130.5v-1l-1 -1q-9 -29 -13 -51q-3 -6 -3 -9q-2 -6 -3 -15.5t-1 -33t3 -46.5t14.5 -53t29.5 -56q49 -64 144 -68h1h1q33 2 56.5 2t41.5 -1.5t28.5 -3.5t22 -7t17.5 -8.5t18 -11.5
q39 -26 75 -43q51 -25 118.5 -43t132.5 -18q120 0 182 67q20 29 28 72t5 85t-7.5 69t-8.5 43q3 4 -2 9zM331 414q-33 22 -76 19q-42 -4 -72 -30q-31 -29 -29 -67q3 -38 39 -63q28 -19 65 -19q7 0 11 1q44 4 73.5 32.5t26.5 64.5q-3 40 -38 62zM265 299q-28 -2 -48 11
q-18 11 -19 29q-1 16 14 31q20 17 46 19h8q23 0 41 -12q18 -11 19 -28q1 -18 -17 -33t-44 -17zM1009 590l-51 13l32 33l2 4q1 5 -3 9q-7 7 -13 0l-39 -41l-109 26l77 81l55 -13q10 -2 12 7t-7 11l-45 11l37 38q3 4 4 8q2 9 -5 15q-11 11 -22 -1l-37 -38l-13 44q-3 9 -12 6.5
t-6 -11.5l16 -55l-78 -81l-31 108l39 41q2 2 2 4q2 5 -2 9q-7 7 -14 0l-31 -33l-15 51q-2 6 -8 9t-12 1t-9.5 -7.5t-1.5 -12.5l15 -50l-44 10q-10 3 -12 -6.5t7 -11.5l55 -13l32 -108l-109 27l-16 54q-3 9 -12 6.5t-6 -11.5l13 -44l-52 12q-6 2 -12 -1.5t-7.5 -10t2 -12
t10.5 -7.5l51 -12l-32 -33q-6 -7 1 -13.5t13 -0.5l39 41l109 -26l-77 -81l-55 13q-9 3 -11.5 -6.5t6.5 -11.5l45 -11l-37 -38q-11 -12 0.5 -23t22.5 1l37 38l13 -44q3 -9 12 -6q5 1 6 7q1 2 0 5l-16 54l78 81l31 -107l-39 -42q-7 -6 0 -13t14 0l31 33l15 -50q2 -7 8 -10
t12 -1q9 3 11 11q1 5 0 9l-15 50l44 -10q10 -3 12 6.5t-7 11.5l-55 14l-32 107l109 -26l16 -55q3 -9 12 -6q5 1 7 7q0 2 -1 5l-13 44l52 -13q6 -2 12 1.5t7.5 10t-2 12.5t-10.5 7z" />
  </font>
</defs>
</svg>
